%TF.GenerationSoftware,KiCad,Pcbnew,6.0.11+dfsg-1*%
%TF.CreationDate,2024-03-26T21:26:54+01:00*%
%TF.ProjectId,IO_16x8_matrix,494f5f31-3678-4385-9f6d-61747269782e,0.1.0*%
%TF.SameCoordinates,Original*%
%TF.FileFunction,Soldermask,Top*%
%TF.FilePolarity,Negative*%
%FSLAX46Y46*%
G04 Gerber Fmt 4.6, Leading zero omitted, Abs format (unit mm)*
G04 Created by KiCad (PCBNEW 6.0.11+dfsg-1) date 2024-03-26 21:26:54*
%MOMM*%
%LPD*%
G01*
G04 APERTURE LIST*
G04 Aperture macros list*
%AMRoundRect*
0 Rectangle with rounded corners*
0 $1 Rounding radius*
0 $2 $3 $4 $5 $6 $7 $8 $9 X,Y pos of 4 corners*
0 Add a 4 corners polygon primitive as box body*
4,1,4,$2,$3,$4,$5,$6,$7,$8,$9,$2,$3,0*
0 Add four circle primitives for the rounded corners*
1,1,$1+$1,$2,$3*
1,1,$1+$1,$4,$5*
1,1,$1+$1,$6,$7*
1,1,$1+$1,$8,$9*
0 Add four rect primitives between the rounded corners*
20,1,$1+$1,$2,$3,$4,$5,0*
20,1,$1+$1,$4,$5,$6,$7,0*
20,1,$1+$1,$6,$7,$8,$9,0*
20,1,$1+$1,$8,$9,$2,$3,0*%
G04 Aperture macros list end*
%ADD10RoundRect,0.140000X-0.140000X-0.170000X0.140000X-0.170000X0.140000X0.170000X-0.140000X0.170000X0*%
%ADD11C,2.000000*%
%ADD12RoundRect,0.140000X0.170000X-0.140000X0.170000X0.140000X-0.170000X0.140000X-0.170000X-0.140000X0*%
%ADD13RoundRect,0.140000X-0.170000X0.140000X-0.170000X-0.140000X0.170000X-0.140000X0.170000X0.140000X0*%
%ADD14C,2.400000*%
%ADD15RoundRect,0.200000X0.200000X0.275000X-0.200000X0.275000X-0.200000X-0.275000X0.200000X-0.275000X0*%
%ADD16RoundRect,0.200000X-0.275000X0.200000X-0.275000X-0.200000X0.275000X-0.200000X0.275000X0.200000X0*%
%ADD17R,0.600000X0.450000*%
%ADD18RoundRect,0.150000X-0.587500X-0.150000X0.587500X-0.150000X0.587500X0.150000X-0.587500X0.150000X0*%
%ADD19RoundRect,0.150000X-0.512500X-0.150000X0.512500X-0.150000X0.512500X0.150000X-0.512500X0.150000X0*%
%ADD20RoundRect,0.200000X0.275000X-0.200000X0.275000X0.200000X-0.275000X0.200000X-0.275000X-0.200000X0*%
%ADD21RoundRect,0.140000X0.140000X0.170000X-0.140000X0.170000X-0.140000X-0.170000X0.140000X-0.170000X0*%
%ADD22RoundRect,0.250000X-1.500000X-0.550000X1.500000X-0.550000X1.500000X0.550000X-1.500000X0.550000X0*%
%ADD23RoundRect,0.225000X0.225000X0.250000X-0.225000X0.250000X-0.225000X-0.250000X0.225000X-0.250000X0*%
%ADD24RoundRect,0.200000X-0.200000X-0.275000X0.200000X-0.275000X0.200000X0.275000X-0.200000X0.275000X0*%
%ADD25RoundRect,0.150000X-0.150000X0.512500X-0.150000X-0.512500X0.150000X-0.512500X0.150000X0.512500X0*%
%ADD26RoundRect,0.135000X0.185000X-0.135000X0.185000X0.135000X-0.185000X0.135000X-0.185000X-0.135000X0*%
%ADD27RoundRect,0.225000X-0.225000X-0.250000X0.225000X-0.250000X0.225000X0.250000X-0.225000X0.250000X0*%
%ADD28R,2.500000X1.800000*%
%ADD29RoundRect,0.250000X-1.850000X1.330000X-1.850000X-1.330000X1.850000X-1.330000X1.850000X1.330000X0*%
%ADD30O,4.200000X3.160000*%
%ADD31RoundRect,0.225000X0.250000X-0.225000X0.250000X0.225000X-0.250000X0.225000X-0.250000X-0.225000X0*%
%ADD32C,5.500000*%
%ADD33RoundRect,0.135000X0.135000X0.185000X-0.135000X0.185000X-0.135000X-0.185000X0.135000X-0.185000X0*%
%ADD34RoundRect,0.243750X0.243750X0.456250X-0.243750X0.456250X-0.243750X-0.456250X0.243750X-0.456250X0*%
%ADD35C,0.650000*%
%ADD36R,0.300000X1.150000*%
%ADD37O,1.000000X2.100000*%
%ADD38O,1.000000X1.600000*%
%ADD39RoundRect,0.150000X-0.150000X0.825000X-0.150000X-0.825000X0.150000X-0.825000X0.150000X0.825000X0*%
%ADD40RoundRect,0.150000X0.512500X0.150000X-0.512500X0.150000X-0.512500X-0.150000X0.512500X-0.150000X0*%
%ADD41R,0.450000X0.600000*%
%ADD42RoundRect,0.135000X-0.185000X0.135000X-0.185000X-0.135000X0.185000X-0.135000X0.185000X0.135000X0*%
%ADD43R,1.700000X1.700000*%
%ADD44O,1.700000X1.700000*%
%ADD45RoundRect,0.135000X-0.135000X-0.185000X0.135000X-0.185000X0.135000X0.185000X-0.135000X0.185000X0*%
%ADD46R,1.100000X1.800000*%
%ADD47RoundRect,0.050000X-0.387500X-0.050000X0.387500X-0.050000X0.387500X0.050000X-0.387500X0.050000X0*%
%ADD48RoundRect,0.050000X-0.050000X-0.387500X0.050000X-0.387500X0.050000X0.387500X-0.050000X0.387500X0*%
%ADD49R,3.200000X3.200000*%
%ADD50RoundRect,0.250000X-0.375000X-0.625000X0.375000X-0.625000X0.375000X0.625000X-0.375000X0.625000X0*%
%ADD51RoundRect,0.150000X-0.825000X-0.150000X0.825000X-0.150000X0.825000X0.150000X-0.825000X0.150000X0*%
%ADD52RoundRect,0.250000X1.330000X1.850000X-1.330000X1.850000X-1.330000X-1.850000X1.330000X-1.850000X0*%
%ADD53O,3.160000X4.200000*%
%ADD54RoundRect,0.250000X-0.620000X-0.845000X0.620000X-0.845000X0.620000X0.845000X-0.620000X0.845000X0*%
%ADD55O,1.740000X2.190000*%
%ADD56RoundRect,0.250000X-0.845000X0.620000X-0.845000X-0.620000X0.845000X-0.620000X0.845000X0.620000X0*%
%ADD57O,2.190000X1.740000*%
%ADD58R,1.120000X2.440000*%
%ADD59R,1.200000X1.400000*%
%ADD60RoundRect,0.150000X-0.650000X-0.150000X0.650000X-0.150000X0.650000X0.150000X-0.650000X0.150000X0*%
G04 APERTURE END LIST*
D10*
X151376900Y-89510200D03*
X152336900Y-89510200D03*
D11*
X142500000Y-46674000D03*
D12*
X145228900Y-97110200D03*
X145228900Y-96150200D03*
D13*
X155892500Y-62453000D03*
X155892500Y-63413000D03*
D14*
X178292000Y-54280000D03*
X178292000Y-49280000D03*
X174792000Y-49280000D03*
X174792000Y-54280000D03*
X171292000Y-49280000D03*
X171292000Y-54280000D03*
X167792000Y-54280000D03*
X167792000Y-49280000D03*
X164292000Y-54280000D03*
X164292000Y-49280000D03*
X160792000Y-54280000D03*
X160792000Y-49280000D03*
D15*
X113728000Y-72136000D03*
X112078000Y-72136000D03*
D16*
X150332900Y-54561200D03*
X150332900Y-56211200D03*
D17*
X135774900Y-59862200D03*
X137874900Y-59862200D03*
D18*
X178005500Y-60264000D03*
X178005500Y-62164000D03*
X179880500Y-61214000D03*
D19*
X164423900Y-64201000D03*
X164423900Y-65151000D03*
X164423900Y-66101000D03*
X166698900Y-66101000D03*
X166698900Y-64201000D03*
D20*
X154650900Y-77801200D03*
X154650900Y-76151200D03*
D13*
X115062000Y-84991000D03*
X115062000Y-85951000D03*
D21*
X120114000Y-79375000D03*
X119154000Y-79375000D03*
D22*
X144832900Y-62814200D03*
X150232900Y-62814200D03*
D10*
X121694000Y-89408000D03*
X122654000Y-89408000D03*
D12*
X143704900Y-80758200D03*
X143704900Y-79798200D03*
D23*
X159359900Y-67386200D03*
X157809900Y-67386200D03*
D20*
X176149000Y-65976000D03*
X176149000Y-64326000D03*
D15*
X113728000Y-66548000D03*
X112078000Y-66548000D03*
D24*
X109157000Y-96012000D03*
X110807000Y-96012000D03*
D13*
X115062000Y-64163000D03*
X115062000Y-65123000D03*
D25*
X159557300Y-63353100D03*
X158607300Y-63353100D03*
X157657300Y-63353100D03*
X157657300Y-65628100D03*
X159557300Y-65628100D03*
D15*
X127444000Y-68961000D03*
X125794000Y-68961000D03*
D20*
X181991000Y-92773000D03*
X181991000Y-91123000D03*
D10*
X121567000Y-59436000D03*
X122527000Y-59436000D03*
D26*
X145252900Y-95027200D03*
X145252900Y-94007200D03*
D24*
X175451000Y-98171000D03*
X177101000Y-98171000D03*
D27*
X181724000Y-64135000D03*
X183274000Y-64135000D03*
D13*
X115062000Y-87150000D03*
X115062000Y-88110000D03*
X144744900Y-54398200D03*
X144744900Y-55358200D03*
D20*
X176149000Y-80581000D03*
X176149000Y-78931000D03*
D15*
X113855000Y-93980000D03*
X112205000Y-93980000D03*
D16*
X125984000Y-83884000D03*
X125984000Y-85534000D03*
X134284900Y-59545200D03*
X134284900Y-61195200D03*
D21*
X120114000Y-89408000D03*
X119154000Y-89408000D03*
D13*
X145252900Y-68622200D03*
X145252900Y-69582200D03*
D18*
X178005500Y-63947000D03*
X178005500Y-65847000D03*
X179880500Y-64897000D03*
D27*
X181838000Y-78994000D03*
X183388000Y-78994000D03*
D28*
X165534900Y-60655200D03*
X161534900Y-60655200D03*
D29*
X190725000Y-57912000D03*
D30*
X190725000Y-61872000D03*
X190725000Y-65832000D03*
X190725000Y-69792000D03*
X190725000Y-73752000D03*
X190725000Y-77712000D03*
X190725000Y-81672000D03*
X190725000Y-85632000D03*
X190725000Y-89592000D03*
D13*
X115062000Y-61877000D03*
X115062000Y-62837000D03*
D31*
X150054900Y-83156200D03*
X150054900Y-81606200D03*
D17*
X139330900Y-59862200D03*
X141430900Y-59862200D03*
D15*
X183324000Y-69469000D03*
X181674000Y-69469000D03*
D32*
X150622000Y-106426000D03*
D33*
X165483000Y-93345000D03*
X164463000Y-93345000D03*
D17*
X105757000Y-81788000D03*
X107857000Y-81788000D03*
D20*
X176149000Y-69659000D03*
X176149000Y-68009000D03*
D13*
X132760900Y-59890200D03*
X132760900Y-60850200D03*
D34*
X159144400Y-82056200D03*
X157269400Y-82056200D03*
D24*
X109030000Y-66706500D03*
X110680000Y-66706500D03*
D35*
X152502000Y-51565000D03*
X146722000Y-51565000D03*
D36*
X152962000Y-52630000D03*
X152162000Y-52630000D03*
X150862000Y-52630000D03*
X149862000Y-52630000D03*
X149362000Y-52630000D03*
X148362000Y-52630000D03*
X147062000Y-52630000D03*
X146262000Y-52630000D03*
X146562000Y-52630000D03*
X147362000Y-52630000D03*
X147862000Y-52630000D03*
X148862000Y-52630000D03*
X150362000Y-52630000D03*
X151362000Y-52630000D03*
X151862000Y-52630000D03*
X152662000Y-52630000D03*
D37*
X145292000Y-52065000D03*
X153932000Y-52065000D03*
D38*
X145292000Y-47885000D03*
X153932000Y-47885000D03*
D39*
X124079000Y-81345000D03*
X122809000Y-81345000D03*
X121539000Y-81345000D03*
X120269000Y-81345000D03*
X118999000Y-81345000D03*
X117729000Y-81345000D03*
X116459000Y-81345000D03*
X116459000Y-86295000D03*
X117729000Y-86295000D03*
X118999000Y-86295000D03*
X120269000Y-86295000D03*
X121539000Y-86295000D03*
X122809000Y-86295000D03*
X124079000Y-86295000D03*
D13*
X115062000Y-71811000D03*
X115062000Y-72771000D03*
D17*
X105607000Y-60277500D03*
X107707000Y-60277500D03*
D23*
X139417900Y-65455800D03*
X137867900Y-65455800D03*
D24*
X157635900Y-84088200D03*
X159285900Y-84088200D03*
D40*
X166999500Y-96581000D03*
X166999500Y-95631000D03*
X166999500Y-94681000D03*
X164724500Y-94681000D03*
X164724500Y-96581000D03*
D20*
X186436000Y-94678000D03*
X186436000Y-93028000D03*
D15*
X127444000Y-61849000D03*
X125794000Y-61849000D03*
D39*
X124079000Y-61279000D03*
X122809000Y-61279000D03*
X121539000Y-61279000D03*
X120269000Y-61279000D03*
X118999000Y-61279000D03*
X117729000Y-61279000D03*
X116459000Y-61279000D03*
X116459000Y-66229000D03*
X117729000Y-66229000D03*
X118999000Y-66229000D03*
X120269000Y-66229000D03*
X121539000Y-66229000D03*
X122809000Y-66229000D03*
X124079000Y-66229000D03*
D16*
X125984000Y-86932000D03*
X125984000Y-88582000D03*
D15*
X113855000Y-89408000D03*
X112205000Y-89408000D03*
D16*
X125984000Y-77788000D03*
X125984000Y-79438000D03*
D27*
X192011000Y-92837000D03*
X193561000Y-92837000D03*
D21*
X167070900Y-62915800D03*
X166110900Y-62915800D03*
D20*
X176149000Y-62166000D03*
X176149000Y-60516000D03*
D15*
X183324000Y-73279000D03*
X181674000Y-73279000D03*
D13*
X115062000Y-79883000D03*
X115062000Y-80843000D03*
D41*
X107442000Y-96427000D03*
X107442000Y-94327000D03*
D27*
X181724000Y-67818000D03*
X183274000Y-67818000D03*
D24*
X109030000Y-70231000D03*
X110680000Y-70231000D03*
D42*
X154396900Y-72910200D03*
X154396900Y-73930200D03*
D12*
X163195000Y-96492000D03*
X163195000Y-95532000D03*
D18*
X188292500Y-92674400D03*
X188292500Y-94574400D03*
X190167500Y-93624400D03*
D15*
X127571000Y-92075000D03*
X125921000Y-92075000D03*
X113728000Y-74295000D03*
X112078000Y-74295000D03*
D24*
X166561000Y-98171000D03*
X168211000Y-98171000D03*
D15*
X113728000Y-60158500D03*
X112078000Y-60158500D03*
X127571000Y-90424000D03*
X125921000Y-90424000D03*
D24*
X163386000Y-98171000D03*
X165036000Y-98171000D03*
D15*
X127571000Y-94615000D03*
X125921000Y-94615000D03*
D17*
X105630000Y-74120000D03*
X107730000Y-74120000D03*
D15*
X139975900Y-72593200D03*
X138325900Y-72593200D03*
D43*
X152816100Y-96189800D03*
D44*
X155356100Y-96189800D03*
X157896100Y-96189800D03*
D15*
X113728000Y-70231000D03*
X112078000Y-70231000D03*
D33*
X136826900Y-61640200D03*
X135806900Y-61640200D03*
D15*
X113855000Y-91567000D03*
X112205000Y-91567000D03*
D24*
X109030000Y-76327000D03*
X110680000Y-76327000D03*
D27*
X192061800Y-96520000D03*
X193611800Y-96520000D03*
D15*
X139727900Y-61640200D03*
X138077900Y-61640200D03*
D16*
X135340900Y-66561200D03*
X135340900Y-68211200D03*
D15*
X113855000Y-84582000D03*
X112205000Y-84582000D03*
D27*
X181724000Y-60452000D03*
X183274000Y-60452000D03*
D13*
X115062000Y-59591000D03*
X115062000Y-60551000D03*
D15*
X127444000Y-73787000D03*
X125794000Y-73787000D03*
D45*
X166495000Y-93345000D03*
X167515000Y-93345000D03*
D46*
X160310900Y-86322200D03*
X160310900Y-92522200D03*
X156610900Y-86322200D03*
X156610900Y-92522200D03*
D27*
X181724000Y-71628000D03*
X183274000Y-71628000D03*
D15*
X113728000Y-76327000D03*
X112078000Y-76327000D03*
D47*
X142069400Y-85552200D03*
X142069400Y-85952200D03*
X142069400Y-86352200D03*
X142069400Y-86752200D03*
X142069400Y-87152200D03*
X142069400Y-87552200D03*
X142069400Y-87952200D03*
X142069400Y-88352200D03*
X142069400Y-88752200D03*
X142069400Y-89152200D03*
X142069400Y-89552200D03*
X142069400Y-89952200D03*
X142069400Y-90352200D03*
X142069400Y-90752200D03*
D48*
X142906900Y-91589700D03*
X143306900Y-91589700D03*
X143706900Y-91589700D03*
X144106900Y-91589700D03*
X144506900Y-91589700D03*
X144906900Y-91589700D03*
X145306900Y-91589700D03*
X145706900Y-91589700D03*
X146106900Y-91589700D03*
X146506900Y-91589700D03*
X146906900Y-91589700D03*
X147306900Y-91589700D03*
X147706900Y-91589700D03*
X148106900Y-91589700D03*
D47*
X148944400Y-90752200D03*
X148944400Y-90352200D03*
X148944400Y-89952200D03*
X148944400Y-89552200D03*
X148944400Y-89152200D03*
X148944400Y-88752200D03*
X148944400Y-88352200D03*
X148944400Y-87952200D03*
X148944400Y-87552200D03*
X148944400Y-87152200D03*
X148944400Y-86752200D03*
X148944400Y-86352200D03*
X148944400Y-85952200D03*
X148944400Y-85552200D03*
D48*
X148106900Y-84714700D03*
X147706900Y-84714700D03*
X147306900Y-84714700D03*
X146906900Y-84714700D03*
X146506900Y-84714700D03*
X146106900Y-84714700D03*
X145706900Y-84714700D03*
X145306900Y-84714700D03*
X144906900Y-84714700D03*
X144506900Y-84714700D03*
X144106900Y-84714700D03*
X143706900Y-84714700D03*
X143306900Y-84714700D03*
X142906900Y-84714700D03*
D49*
X145506900Y-88152200D03*
D13*
X115062000Y-89309000D03*
X115062000Y-90269000D03*
D15*
X193611000Y-94615000D03*
X191961000Y-94615000D03*
D50*
X168103900Y-60147200D03*
X170903900Y-60147200D03*
D20*
X136864900Y-74053200D03*
X136864900Y-72403200D03*
D15*
X113855000Y-86741000D03*
X112205000Y-86741000D03*
D24*
X109030000Y-74295000D03*
X110680000Y-74295000D03*
D32*
X108204000Y-49784000D03*
D23*
X159219900Y-61417200D03*
X157669900Y-61417200D03*
D16*
X162518900Y-64224400D03*
X162518900Y-65874400D03*
D42*
X146752900Y-80753200D03*
X146752900Y-81773200D03*
D20*
X176149000Y-73342000D03*
X176149000Y-71692000D03*
D15*
X127444000Y-59690000D03*
X125794000Y-59690000D03*
D18*
X178005500Y-78679000D03*
X178005500Y-80579000D03*
X179880500Y-79629000D03*
D51*
X138453900Y-67056000D03*
X138453900Y-68326000D03*
X138453900Y-69596000D03*
X138453900Y-70866000D03*
X143403900Y-70866000D03*
X143403900Y-69596000D03*
X143403900Y-68326000D03*
X143403900Y-67056000D03*
D15*
X127444000Y-75565000D03*
X125794000Y-75565000D03*
D39*
X124079000Y-91378000D03*
X122809000Y-91378000D03*
X121539000Y-91378000D03*
X120269000Y-91378000D03*
X118999000Y-91378000D03*
X117729000Y-91378000D03*
X116459000Y-91378000D03*
X116459000Y-96328000D03*
X117729000Y-96328000D03*
X118999000Y-96328000D03*
X120269000Y-96328000D03*
X121539000Y-96328000D03*
X122809000Y-96328000D03*
X124079000Y-96328000D03*
D15*
X173164000Y-98171000D03*
X171514000Y-98171000D03*
D17*
X105757000Y-79756000D03*
X107857000Y-79756000D03*
D24*
X109030000Y-64674500D03*
X110680000Y-64674500D03*
X109157000Y-84582000D03*
X110807000Y-84582000D03*
D13*
X115062000Y-69878000D03*
X115062000Y-70838000D03*
D17*
X105630000Y-64389000D03*
X107730000Y-64389000D03*
D15*
X113855000Y-80137000D03*
X112205000Y-80137000D03*
X183387000Y-76835000D03*
X181737000Y-76835000D03*
D13*
X147284900Y-94256200D03*
X147284900Y-95216200D03*
X115062000Y-66449000D03*
X115062000Y-67409000D03*
D24*
X109157000Y-86233000D03*
X110807000Y-86233000D03*
X109157000Y-80137000D03*
X110807000Y-80137000D03*
D18*
X178005500Y-71313000D03*
X178005500Y-73213000D03*
X179880500Y-72263000D03*
D15*
X183387000Y-80645000D03*
X181737000Y-80645000D03*
D24*
X109157000Y-93980000D03*
X110807000Y-93980000D03*
D17*
X105630000Y-70056000D03*
X107730000Y-70056000D03*
D27*
X143969900Y-75960200D03*
X145519900Y-75960200D03*
D24*
X109157000Y-81788000D03*
X110807000Y-81788000D03*
D15*
X193661800Y-98298000D03*
X192011800Y-98298000D03*
D14*
X136518000Y-54280000D03*
X136518000Y-49280000D03*
X133018000Y-54280000D03*
X133018000Y-49280000D03*
X129518000Y-54280000D03*
X129518000Y-49280000D03*
X126018000Y-54280000D03*
X126018000Y-49280000D03*
X122518000Y-49280000D03*
X122518000Y-54280000D03*
X119018000Y-49280000D03*
X119018000Y-54280000D03*
D17*
X107027000Y-98044000D03*
X109127000Y-98044000D03*
D13*
X115062000Y-91214000D03*
X115062000Y-92174000D03*
D20*
X125984000Y-82486000D03*
X125984000Y-80836000D03*
D46*
X160438900Y-72002200D03*
X160438900Y-78202200D03*
X156738900Y-78202200D03*
X156738900Y-72002200D03*
D52*
X194310000Y-105410000D03*
D53*
X190350000Y-105410000D03*
X186390000Y-105410000D03*
X182430000Y-105410000D03*
X178470000Y-105410000D03*
X174510000Y-105410000D03*
X170550000Y-105410000D03*
X166590000Y-105410000D03*
X162630000Y-105410000D03*
X158670000Y-105410000D03*
D39*
X124079000Y-71185000D03*
X122809000Y-71185000D03*
X121539000Y-71185000D03*
X120269000Y-71185000D03*
X118999000Y-71185000D03*
X117729000Y-71185000D03*
X116459000Y-71185000D03*
X116459000Y-76135000D03*
X117729000Y-76135000D03*
X118999000Y-76135000D03*
X120269000Y-76135000D03*
X121539000Y-76135000D03*
X122809000Y-76135000D03*
X124079000Y-76135000D03*
D21*
X139382900Y-74436200D03*
X138422900Y-74436200D03*
D18*
X178005500Y-74996000D03*
X178005500Y-76896000D03*
X179880500Y-75946000D03*
D24*
X178499000Y-98171000D03*
X180149000Y-98171000D03*
D16*
X109093000Y-56833000D03*
X109093000Y-58483000D03*
D18*
X178005500Y-67630000D03*
X178005500Y-69530000D03*
X179880500Y-68580000D03*
D17*
X105630000Y-66421000D03*
X107730000Y-66421000D03*
D20*
X186436000Y-98361000D03*
X186436000Y-96711000D03*
D13*
X115062000Y-81816000D03*
X115062000Y-82776000D03*
D15*
X127444000Y-70612000D03*
X125794000Y-70612000D03*
D42*
X145736900Y-80753200D03*
X145736900Y-81773200D03*
D41*
X152290900Y-56586200D03*
X152290900Y-54486200D03*
D21*
X120114000Y-69215000D03*
X119154000Y-69215000D03*
D17*
X105757000Y-85852000D03*
X107857000Y-85852000D03*
D15*
X113855000Y-82423000D03*
X112205000Y-82423000D03*
D54*
X112336800Y-109535000D03*
D55*
X114876800Y-109535000D03*
X117416800Y-109535000D03*
X119956800Y-109535000D03*
X122496800Y-109535000D03*
X125036800Y-109535000D03*
X127576800Y-109535000D03*
X130116800Y-109535000D03*
X132656800Y-109535000D03*
D12*
X147782900Y-82378200D03*
X147782900Y-81418200D03*
D32*
X189992000Y-49784000D03*
D12*
X144720900Y-80758200D03*
X144720900Y-79798200D03*
D13*
X115062000Y-94897000D03*
X115062000Y-95857000D03*
D18*
X188292500Y-96362200D03*
X188292500Y-98262200D03*
X190167500Y-97312200D03*
D16*
X151578900Y-81581200D03*
X151578900Y-83231200D03*
D10*
X150082900Y-84446200D03*
X151042900Y-84446200D03*
D15*
X127444000Y-64389000D03*
X125794000Y-64389000D03*
X183324000Y-65786000D03*
X181674000Y-65786000D03*
D31*
X112268000Y-58433000D03*
X112268000Y-56883000D03*
D56*
X195560000Y-66294000D03*
D57*
X195560000Y-68834000D03*
X195560000Y-71374000D03*
X195560000Y-73914000D03*
X195560000Y-76454000D03*
X195560000Y-78994000D03*
X195560000Y-81534000D03*
X195560000Y-84074000D03*
X195560000Y-86614000D03*
D15*
X113728000Y-64579000D03*
X112078000Y-64579000D03*
D17*
X105607000Y-62309500D03*
X107707000Y-62309500D03*
D24*
X109030000Y-62134500D03*
X110680000Y-62134500D03*
D16*
X135340900Y-69761600D03*
X135340900Y-71411600D03*
D15*
X113855000Y-96266000D03*
X112205000Y-96266000D03*
X127571000Y-96520000D03*
X125921000Y-96520000D03*
D24*
X109030000Y-71882000D03*
X110680000Y-71882000D03*
D52*
X139232000Y-105693000D03*
D53*
X135272000Y-105693000D03*
X131312000Y-105693000D03*
X127352000Y-105693000D03*
X123392000Y-105693000D03*
X119432000Y-105693000D03*
X115472000Y-105693000D03*
X111512000Y-105693000D03*
X107552000Y-105693000D03*
X103592000Y-105693000D03*
D26*
X154390900Y-87138200D03*
X154390900Y-86118200D03*
D24*
X109157000Y-89408000D03*
X110807000Y-89408000D03*
D21*
X120241000Y-59436000D03*
X119281000Y-59436000D03*
D13*
X146268900Y-94784200D03*
X146268900Y-95744200D03*
D58*
X170942000Y-95110000D03*
X173482000Y-95110000D03*
X176022000Y-95110000D03*
X178562000Y-95110000D03*
X178562000Y-86500000D03*
X176022000Y-86500000D03*
X173482000Y-86500000D03*
X170942000Y-86500000D03*
D15*
X113728000Y-62388500D03*
X112078000Y-62388500D03*
D10*
X121694000Y-69215000D03*
X122654000Y-69215000D03*
D20*
X110744000Y-58483000D03*
X110744000Y-56833000D03*
D41*
X169503900Y-62145200D03*
X169503900Y-64245200D03*
D12*
X140656900Y-96224200D03*
X140656900Y-95264200D03*
D20*
X176149000Y-77025000D03*
X176149000Y-75375000D03*
D33*
X141906900Y-61640200D03*
X140886900Y-61640200D03*
D16*
X146522900Y-55069200D03*
X146522900Y-56719200D03*
D15*
X183324000Y-62103000D03*
X181674000Y-62103000D03*
D10*
X121694000Y-79375000D03*
X122654000Y-79375000D03*
D17*
X105630000Y-76152000D03*
X107730000Y-76152000D03*
D11*
X155031900Y-83580200D03*
D13*
X115062000Y-74704000D03*
X115062000Y-75664000D03*
D59*
X143856900Y-97253200D03*
X143856900Y-95053200D03*
X142156900Y-95053200D03*
X142156900Y-97253200D03*
D17*
X105757000Y-83820000D03*
X107857000Y-83820000D03*
D12*
X148784900Y-82378200D03*
X148784900Y-81418200D03*
D21*
X139136900Y-89549200D03*
X138176900Y-89549200D03*
D13*
X115062000Y-97056000D03*
X115062000Y-98016000D03*
D24*
X109157000Y-91186000D03*
X110807000Y-91186000D03*
D60*
X134262900Y-75929200D03*
X134262900Y-77199200D03*
X134262900Y-78469200D03*
X134262900Y-79739200D03*
X141462900Y-79739200D03*
X141462900Y-78469200D03*
X141462900Y-77199200D03*
X141462900Y-75929200D03*
D12*
X140680900Y-84314200D03*
X140680900Y-83354200D03*
D15*
X127444000Y-66040000D03*
X125794000Y-66040000D03*
D17*
X105630000Y-72088000D03*
X107730000Y-72088000D03*
D27*
X181724000Y-75184000D03*
X183274000Y-75184000D03*
D24*
X109030000Y-60102500D03*
X110680000Y-60102500D03*
D20*
X181991000Y-95948000D03*
X181991000Y-94298000D03*
D13*
X115062000Y-76863000D03*
X115062000Y-77823000D03*
D41*
X107442000Y-89569000D03*
X107442000Y-87469000D03*
X107442000Y-92871000D03*
X107442000Y-90771000D03*
M02*
