%TF.GenerationSoftware,KiCad,Pcbnew,6.0.11+dfsg-1*%
%TF.CreationDate,2024-03-26T21:28:40+01:00*%
%TF.ProjectId,IO_16x8_matrix,494f5f31-3678-4385-9f6d-61747269782e,0.1.0*%
%TF.SameCoordinates,Original*%
%TF.FileFunction,Drillmap*%
%TF.FilePolarity,Positive*%
%FSLAX45Y45*%
G04 Gerber Fmt 4.5, Leading zero omitted, Abs format (unit mm)*
G04 Created by KiCad (PCBNEW 6.0.11+dfsg-1) date 2024-03-26 21:28:40*
%MOMM*%
%LPD*%
G01*
G04 APERTURE LIST*
%ADD10C,0.100000*%
%ADD11C,0.200000*%
%ADD12C,0.030000*%
%ADD13C,0.060000*%
%ADD14C,0.119000*%
%ADD15C,0.120000*%
%ADD16C,0.180000*%
G04 APERTURE END LIST*
D10*
X10091400Y-4478000D02*
X19852640Y-4478000D01*
X19852640Y-4478000D02*
X19852640Y-11211560D01*
X19852640Y-11211560D02*
X10091400Y-11211560D01*
X10091400Y-11211560D02*
X10091400Y-4478000D01*
D11*
D12*
X10233900Y-10868900D02*
X10263900Y-10898900D01*
X10263900Y-10868900D02*
X10233900Y-10898900D01*
X10246600Y-10233900D02*
X10276600Y-10263900D01*
X10276600Y-10233900D02*
X10246600Y-10263900D01*
X10297400Y-6119100D02*
X10327400Y-6149100D01*
X10327400Y-6119100D02*
X10297400Y-6149100D01*
X10322800Y-6347700D02*
X10352800Y-6377700D01*
X10352800Y-6347700D02*
X10322800Y-6377700D01*
X10360900Y-5331700D02*
X10390900Y-5361700D01*
X10390900Y-5331700D02*
X10360900Y-5361700D01*
X10360900Y-6982700D02*
X10390900Y-7012700D01*
X10390900Y-6982700D02*
X10360900Y-7012700D01*
X10360900Y-7198600D02*
X10390900Y-7228600D01*
X10390900Y-7198600D02*
X10360900Y-7228600D01*
X10360900Y-7401800D02*
X10390900Y-7431800D01*
X10390900Y-7401800D02*
X10360900Y-7431800D01*
X10360900Y-7605000D02*
X10390900Y-7635000D01*
X10390900Y-7605000D02*
X10360900Y-7635000D01*
X10386300Y-7782800D02*
X10416300Y-7812800D01*
X10416300Y-7782800D02*
X10386300Y-7812800D01*
X10399000Y-6525500D02*
X10429000Y-6555500D01*
X10429000Y-6525500D02*
X10399000Y-6555500D01*
X10411700Y-5865100D02*
X10441700Y-5895100D01*
X10441700Y-5865100D02*
X10411700Y-5895100D01*
X10424400Y-5649200D02*
X10454400Y-5679200D01*
X10454400Y-5649200D02*
X10424400Y-5679200D01*
X10437100Y-8062200D02*
X10467100Y-8092200D01*
X10467100Y-8062200D02*
X10437100Y-8092200D01*
X10449800Y-6766800D02*
X10479800Y-6796800D01*
X10479800Y-6766800D02*
X10449800Y-6796800D01*
X10462500Y-8252700D02*
X10492500Y-8282700D01*
X10492500Y-8252700D02*
X10462500Y-8282700D01*
X10500600Y-8481300D02*
X10530600Y-8511300D01*
X10530600Y-8481300D02*
X10500600Y-8511300D01*
X10538700Y-8836900D02*
X10568700Y-8866900D01*
X10568700Y-8836900D02*
X10538700Y-8866900D01*
X10551400Y-10868900D02*
X10581400Y-10898900D01*
X10581400Y-10868900D02*
X10551400Y-10898900D01*
X10589500Y-9154400D02*
X10619500Y-9184400D01*
X10619500Y-9154400D02*
X10589500Y-9184400D01*
X10640300Y-9344900D02*
X10670300Y-9374900D01*
X10670300Y-9344900D02*
X10640300Y-9374900D01*
X10650700Y-6322300D02*
X10680700Y-6352300D01*
X10680700Y-6322300D02*
X10650700Y-6352300D01*
X10653000Y-5547600D02*
X10683000Y-5577600D01*
X10683000Y-5547600D02*
X10653000Y-5577600D01*
X10653000Y-5839700D02*
X10683000Y-5869700D01*
X10683000Y-5839700D02*
X10653000Y-5869700D01*
X10653000Y-6119100D02*
X10683000Y-6149100D01*
X10683000Y-6119100D02*
X10653000Y-6149100D01*
X10653000Y-6525500D02*
X10683000Y-6555500D01*
X10683000Y-6525500D02*
X10653000Y-6555500D01*
X10653000Y-6804900D02*
X10683000Y-6834900D01*
X10683000Y-6804900D02*
X10653000Y-6834900D01*
X10653000Y-7097000D02*
X10683000Y-7127000D01*
X10683000Y-7097000D02*
X10653000Y-7127000D01*
X10653000Y-7287500D02*
X10683000Y-7317500D01*
X10683000Y-7287500D02*
X10653000Y-7317500D01*
X10653000Y-7503400D02*
X10683000Y-7533400D01*
X10683000Y-7503400D02*
X10653000Y-7533400D01*
X10653000Y-7782800D02*
X10683000Y-7812800D01*
X10683000Y-7782800D02*
X10653000Y-7812800D01*
X10653000Y-8049500D02*
X10683000Y-8079500D01*
X10683000Y-8049500D02*
X10653000Y-8079500D01*
X10653000Y-8265400D02*
X10683000Y-8295400D01*
X10683000Y-8265400D02*
X10653000Y-8295400D01*
X10653000Y-8671800D02*
X10683000Y-8701800D01*
X10683000Y-8671800D02*
X10653000Y-8701800D01*
X10653000Y-9687800D02*
X10683000Y-9717800D01*
X10683000Y-9687800D02*
X10653000Y-9717800D01*
X10754600Y-5814300D02*
X10784600Y-5844300D01*
X10784600Y-5814300D02*
X10754600Y-5844300D01*
X10754600Y-6119100D02*
X10784600Y-6149100D01*
X10784600Y-6119100D02*
X10754600Y-6149100D01*
X10754600Y-6538200D02*
X10784600Y-6568200D01*
X10784600Y-6538200D02*
X10754600Y-6568200D01*
X10754600Y-7097000D02*
X10784600Y-7127000D01*
X10784600Y-7097000D02*
X10754600Y-7127000D01*
X10754600Y-7503400D02*
X10784600Y-7533400D01*
X10784600Y-7503400D02*
X10754600Y-7533400D01*
X10754600Y-8062200D02*
X10784600Y-8092200D01*
X10784600Y-8062200D02*
X10754600Y-8092200D01*
X10754600Y-8468600D02*
X10784600Y-8498600D01*
X10784600Y-8468600D02*
X10754600Y-8498600D01*
X10805400Y-9002000D02*
X10835400Y-9032000D01*
X10835400Y-9002000D02*
X10805400Y-9032000D01*
X10805400Y-9484600D02*
X10835400Y-9514600D01*
X10835400Y-9484600D02*
X10805400Y-9514600D01*
X10818100Y-10983200D02*
X10848100Y-11013200D01*
X10848100Y-10983200D02*
X10818100Y-11013200D01*
X10830800Y-5496800D02*
X10860800Y-5526800D01*
X10860800Y-5496800D02*
X10830800Y-5526800D01*
X10830800Y-9700500D02*
X10860800Y-9730500D01*
X10860800Y-9700500D02*
X10830800Y-9730500D01*
X10843500Y-6817600D02*
X10873500Y-6847600D01*
X10873500Y-6817600D02*
X10843500Y-6847600D01*
X10868900Y-7782800D02*
X10898900Y-7812800D01*
X10898900Y-7782800D02*
X10868900Y-7812800D01*
X10881600Y-8748000D02*
X10911600Y-8778000D01*
X10911600Y-8748000D02*
X10881600Y-8778000D01*
X10894300Y-9243300D02*
X10924300Y-9273300D01*
X10924300Y-9243300D02*
X10894300Y-9273300D01*
X10932400Y-10360900D02*
X10962400Y-10390900D01*
X10962400Y-10360900D02*
X10932400Y-10390900D01*
X10970500Y-6093700D02*
X11000500Y-6123700D01*
X11000500Y-6093700D02*
X10970500Y-6123700D01*
X10970500Y-6550900D02*
X11000500Y-6580900D01*
X11000500Y-6550900D02*
X10970500Y-6580900D01*
X10970500Y-7084300D02*
X11000500Y-7114300D01*
X11000500Y-7084300D02*
X10970500Y-7114300D01*
X10970500Y-7516100D02*
X11000500Y-7546100D01*
X11000500Y-7516100D02*
X10970500Y-7546100D01*
X10983200Y-8074900D02*
X11013200Y-8104900D01*
X11013200Y-8074900D02*
X10983200Y-8104900D01*
X10983200Y-8519400D02*
X11013200Y-8549400D01*
X11013200Y-8519400D02*
X10983200Y-8549400D01*
X10983200Y-9014700D02*
X11013200Y-9044700D01*
X11013200Y-9014700D02*
X10983200Y-9044700D01*
X10983200Y-9484600D02*
X11013200Y-9514600D01*
X11013200Y-9484600D02*
X10983200Y-9514600D01*
X11008600Y-10830800D02*
X11038600Y-10860800D01*
X11038600Y-10830800D02*
X11008600Y-10860800D01*
X11021300Y-11034000D02*
X11051300Y-11064000D01*
X11051300Y-11034000D02*
X11021300Y-11064000D01*
X11034000Y-5560300D02*
X11064000Y-5590300D01*
X11064000Y-5560300D02*
X11034000Y-5590300D01*
X11046700Y-7300200D02*
X11076700Y-7330200D01*
X11076700Y-7300200D02*
X11046700Y-7330200D01*
X11072100Y-6322300D02*
X11102100Y-6352300D01*
X11102100Y-6322300D02*
X11072100Y-6352300D01*
X11072100Y-9789400D02*
X11102100Y-9819400D01*
X11102100Y-9789400D02*
X11072100Y-9819400D01*
X11084800Y-5407900D02*
X11114800Y-5437900D01*
X11114800Y-5407900D02*
X11084800Y-5437900D01*
X11135600Y-7719300D02*
X11165600Y-7749300D01*
X11165600Y-7719300D02*
X11135600Y-7749300D01*
X11135600Y-7884400D02*
X11165600Y-7914400D01*
X11165600Y-7884400D02*
X11135600Y-7914400D01*
X11211800Y-5357100D02*
X11241800Y-5387100D01*
X11241800Y-5357100D02*
X11211800Y-5387100D01*
X11211800Y-5560300D02*
X11241800Y-5590300D01*
X11241800Y-5560300D02*
X11211800Y-5590300D01*
X11326100Y-5738100D02*
X11356100Y-5768100D01*
X11356100Y-5738100D02*
X11326100Y-5768100D01*
X11326100Y-10360900D02*
X11356100Y-10390900D01*
X11356100Y-10360900D02*
X11326100Y-10390900D01*
X11389600Y-9268700D02*
X11419600Y-9298700D01*
X11419600Y-9268700D02*
X11389600Y-9298700D01*
X11389600Y-9497300D02*
X11419600Y-9527300D01*
X11419600Y-9497300D02*
X11389600Y-9527300D01*
X11389600Y-9789400D02*
X11419600Y-9819400D01*
X11419600Y-9789400D02*
X11389600Y-9819400D01*
X11402300Y-7312900D02*
X11432300Y-7342900D01*
X11432300Y-7312900D02*
X11402300Y-7342900D01*
X11402300Y-8113000D02*
X11432300Y-8143000D01*
X11432300Y-8113000D02*
X11402300Y-8143000D01*
X11402300Y-8341600D02*
X11432300Y-8371600D01*
X11432300Y-8341600D02*
X11402300Y-8371600D01*
X11402300Y-8557500D02*
X11432300Y-8587500D01*
X11432300Y-8557500D02*
X11402300Y-8587500D01*
X11402300Y-8798800D02*
X11432300Y-8828800D01*
X11432300Y-8798800D02*
X11402300Y-8828800D01*
X11402300Y-9027400D02*
X11432300Y-9057400D01*
X11432300Y-9027400D02*
X11402300Y-9057400D01*
X11408650Y-7103350D02*
X11438650Y-7133350D01*
X11438650Y-7103350D02*
X11408650Y-7133350D01*
X11415000Y-6106400D02*
X11445000Y-6136400D01*
X11445000Y-6106400D02*
X11415000Y-6136400D01*
X11415000Y-6335000D02*
X11445000Y-6365000D01*
X11445000Y-6335000D02*
X11415000Y-6365000D01*
X11415000Y-6550900D02*
X11445000Y-6580900D01*
X11445000Y-6550900D02*
X11415000Y-6580900D01*
X11415000Y-7516100D02*
X11445000Y-7546100D01*
X11445000Y-7516100D02*
X11415000Y-7546100D01*
X11427700Y-5014200D02*
X11457700Y-5044200D01*
X11457700Y-5014200D02*
X11427700Y-5044200D01*
X11427700Y-5420600D02*
X11457700Y-5450600D01*
X11457700Y-5420600D02*
X11427700Y-5450600D01*
X11441000Y-4576200D02*
X11471000Y-4606200D01*
X11471000Y-4576200D02*
X11441000Y-4606200D01*
X11491200Y-6804900D02*
X11521200Y-6834900D01*
X11521200Y-6804900D02*
X11491200Y-6834900D01*
X11491200Y-7846300D02*
X11521200Y-7876300D01*
X11521200Y-7846300D02*
X11491200Y-7876300D01*
X11491200Y-9281400D02*
X11521200Y-9311400D01*
X11521200Y-9281400D02*
X11491200Y-9311400D01*
X11656300Y-5700000D02*
X11686300Y-5730000D01*
X11686300Y-5700000D02*
X11656300Y-5730000D01*
X11732500Y-10360900D02*
X11762500Y-10390900D01*
X11762500Y-10360900D02*
X11732500Y-10390900D01*
X11808700Y-6893800D02*
X11838700Y-6923800D01*
X11838700Y-6893800D02*
X11808700Y-6923800D01*
X11808700Y-7909800D02*
X11838700Y-7939800D01*
X11838700Y-7909800D02*
X11808700Y-7939800D01*
X11808700Y-8875000D02*
X11838700Y-8905000D01*
X11838700Y-8875000D02*
X11808700Y-8905000D01*
X11834100Y-5928600D02*
X11864100Y-5958600D01*
X11864100Y-5928600D02*
X11834100Y-5958600D01*
X11949000Y-4576200D02*
X11979000Y-4606200D01*
X11979000Y-4576200D02*
X11949000Y-4606200D01*
X12037300Y-5700000D02*
X12067300Y-5730000D01*
X12067300Y-5700000D02*
X12037300Y-5730000D01*
X12075400Y-6830300D02*
X12105400Y-6860300D01*
X12105400Y-6830300D02*
X12075400Y-6860300D01*
X12075400Y-7820900D02*
X12105400Y-7850900D01*
X12105400Y-7820900D02*
X12075400Y-7850900D01*
X12075400Y-8849600D02*
X12105400Y-8879600D01*
X12105400Y-8849600D02*
X12075400Y-8879600D01*
X12138900Y-9789400D02*
X12168900Y-9819400D01*
X12168900Y-9789400D02*
X12138900Y-9819400D01*
X12316700Y-5903200D02*
X12346700Y-5933200D01*
X12346700Y-5903200D02*
X12316700Y-5933200D01*
X12329400Y-6855700D02*
X12359400Y-6885700D01*
X12359400Y-6855700D02*
X12329400Y-6885700D01*
X12329400Y-7859000D02*
X12359400Y-7889000D01*
X12359400Y-7859000D02*
X12329400Y-7889000D01*
X12329400Y-8862300D02*
X12359400Y-8892300D01*
X12359400Y-8862300D02*
X12329400Y-8892300D01*
X12392900Y-9802100D02*
X12422900Y-9832100D01*
X12422900Y-9802100D02*
X12392900Y-9832100D01*
X12418300Y-8925800D02*
X12448300Y-8955800D01*
X12448300Y-8925800D02*
X12418300Y-8955800D01*
X12443700Y-5700000D02*
X12473700Y-5730000D01*
X12473700Y-5700000D02*
X12443700Y-5730000D01*
X12457000Y-4576200D02*
X12487000Y-4606200D01*
X12487000Y-4576200D02*
X12457000Y-4606200D01*
X12481800Y-9319500D02*
X12511800Y-9349500D01*
X12511800Y-9319500D02*
X12481800Y-9349500D01*
X12494500Y-8455900D02*
X12524500Y-8485900D01*
X12524500Y-8455900D02*
X12494500Y-8485900D01*
X12507200Y-6068300D02*
X12537200Y-6098300D01*
X12537200Y-6068300D02*
X12507200Y-6098300D01*
X12507200Y-6296900D02*
X12537200Y-6326900D01*
X12537200Y-6296900D02*
X12507200Y-6326900D01*
X12519900Y-10322800D02*
X12549900Y-10352800D01*
X12549900Y-10322800D02*
X12519900Y-10352800D01*
X12596100Y-6728700D02*
X12626100Y-6758700D01*
X12626100Y-6728700D02*
X12596100Y-6758700D01*
X12672300Y-8189200D02*
X12702300Y-8219200D01*
X12702300Y-8189200D02*
X12672300Y-8219200D01*
X12672300Y-9814800D02*
X12702300Y-9844800D01*
X12702300Y-9814800D02*
X12672300Y-9844800D01*
X12685000Y-7770100D02*
X12715000Y-7800100D01*
X12715000Y-7770100D02*
X12685000Y-7800100D01*
X12685000Y-8735300D02*
X12715000Y-8765300D01*
X12715000Y-8735300D02*
X12685000Y-8765300D01*
X12697700Y-8875000D02*
X12727700Y-8905000D01*
X12727700Y-8875000D02*
X12697700Y-8905000D01*
X12761200Y-7249400D02*
X12791200Y-7279400D01*
X12791200Y-7249400D02*
X12761200Y-7279400D01*
X12799300Y-7668500D02*
X12829300Y-7698500D01*
X12829300Y-7668500D02*
X12799300Y-7698500D01*
X12837400Y-6957300D02*
X12867400Y-6987300D01*
X12867400Y-6957300D02*
X12837400Y-6987300D01*
X12862800Y-5954000D02*
X12892800Y-5984000D01*
X12892800Y-5954000D02*
X12862800Y-5984000D01*
X12862800Y-6169900D02*
X12892800Y-6199900D01*
X12892800Y-6169900D02*
X12862800Y-6199900D01*
X12862800Y-6500100D02*
X12892800Y-6530100D01*
X12892800Y-6500100D02*
X12862800Y-6530100D01*
X12862800Y-9484600D02*
X12892800Y-9514600D01*
X12892800Y-9484600D02*
X12862800Y-9514600D01*
X12868850Y-5700000D02*
X12898850Y-5730000D01*
X12898850Y-5700000D02*
X12868850Y-5730000D01*
X12875500Y-9103600D02*
X12905500Y-9133600D01*
X12905500Y-9103600D02*
X12875500Y-9133600D01*
X12913600Y-6728700D02*
X12943600Y-6758700D01*
X12943600Y-6728700D02*
X12913600Y-6758700D01*
X12926300Y-6106400D02*
X12956300Y-6136400D01*
X12956300Y-6106400D02*
X12926300Y-6136400D01*
X12926300Y-10322800D02*
X12956300Y-10352800D01*
X12956300Y-10322800D02*
X12926300Y-10352800D01*
X12964400Y-9154400D02*
X12994400Y-9184400D01*
X12994400Y-9154400D02*
X12964400Y-9184400D01*
X12964400Y-9484600D02*
X12994400Y-9514600D01*
X12994400Y-9484600D02*
X12964400Y-9514600D01*
X12965000Y-4576200D02*
X12995000Y-4606200D01*
X12995000Y-4576200D02*
X12965000Y-4606200D01*
X12977100Y-6347700D02*
X13007100Y-6377700D01*
X13007100Y-6347700D02*
X12977100Y-6377700D01*
X13040600Y-9814800D02*
X13070600Y-9844800D01*
X13070600Y-9814800D02*
X13040600Y-9844800D01*
X13104100Y-9370300D02*
X13134100Y-9400300D01*
X13134100Y-9370300D02*
X13104100Y-9400300D01*
X13142200Y-9586200D02*
X13172200Y-9616200D01*
X13172200Y-9586200D02*
X13142200Y-9616200D01*
X13163490Y-7333220D02*
X13193490Y-7363220D01*
X13193490Y-7333220D02*
X13163490Y-7363220D01*
X13277790Y-6583920D02*
X13307790Y-6613920D01*
X13307790Y-6583920D02*
X13277790Y-6613920D01*
X13290490Y-6768220D02*
X13320490Y-6798220D01*
X13320490Y-6768220D02*
X13290490Y-6798220D01*
X13290490Y-6926820D02*
X13320490Y-6956820D01*
X13320490Y-6926820D02*
X13290490Y-6956820D01*
X13291090Y-6171320D02*
X13321090Y-6201320D01*
X13321090Y-6171320D02*
X13291090Y-6201320D01*
X13291090Y-8470020D02*
X13321090Y-8500020D01*
X13321090Y-8470020D02*
X13291090Y-8500020D01*
X13307300Y-9306800D02*
X13337300Y-9336800D01*
X13337300Y-9306800D02*
X13307300Y-9336800D01*
X13309530Y-9047720D02*
X13339530Y-9077720D01*
X13339530Y-9047720D02*
X13309530Y-9077720D01*
X13316490Y-7149220D02*
X13346490Y-7179220D01*
X13346490Y-7149220D02*
X13316490Y-7179220D01*
X13358100Y-9814800D02*
X13388100Y-9844800D01*
X13388100Y-9814800D02*
X13358100Y-9844800D01*
X13367290Y-6793620D02*
X13397290Y-6823620D01*
X13397290Y-6793620D02*
X13367290Y-6823620D01*
X13367290Y-8114420D02*
X13397290Y-8144420D01*
X13397290Y-8114420D02*
X13367290Y-8144420D01*
X13367290Y-8597020D02*
X13397290Y-8627020D01*
X13397290Y-8597020D02*
X13367290Y-8627020D01*
X13396200Y-11046700D02*
X13426200Y-11076700D01*
X13426200Y-11046700D02*
X13396200Y-11076700D01*
X13412410Y-5773660D02*
X13442410Y-5803660D01*
X13442410Y-5773660D02*
X13412410Y-5803660D01*
X13418090Y-6539620D02*
X13448090Y-6569620D01*
X13448090Y-6539620D02*
X13418090Y-6569620D01*
X13430790Y-7428620D02*
X13460790Y-7458620D01*
X13460790Y-7428620D02*
X13430790Y-7458620D01*
X13473000Y-4576200D02*
X13503000Y-4606200D01*
X13503000Y-4576200D02*
X13473000Y-4606200D01*
X13494290Y-8241420D02*
X13524290Y-8271420D01*
X13524290Y-8241420D02*
X13494290Y-8271420D01*
X13535900Y-9586200D02*
X13565900Y-9616200D01*
X13565900Y-9586200D02*
X13535900Y-9616200D01*
X13550830Y-9047720D02*
X13580830Y-9077720D01*
X13580830Y-9047720D02*
X13550830Y-9077720D01*
X13569890Y-5712700D02*
X13599890Y-5742700D01*
X13599890Y-5712700D02*
X13569890Y-5742700D01*
X13569890Y-7368780D02*
X13599890Y-7398780D01*
X13599890Y-7368780D02*
X13569890Y-7398780D01*
X13586700Y-9764000D02*
X13616700Y-9794000D01*
X13616700Y-9764000D02*
X13586700Y-9794000D01*
X13595890Y-8597020D02*
X13625890Y-8627020D01*
X13625890Y-8597020D02*
X13595890Y-8627020D01*
X13600370Y-9306800D02*
X13630370Y-9336800D01*
X13630370Y-9306800D02*
X13600370Y-9336800D01*
X13615610Y-7495780D02*
X13645610Y-7525780D01*
X13645610Y-7495780D02*
X13615610Y-7525780D01*
X13637500Y-10970500D02*
X13667500Y-11000500D01*
X13667500Y-10970500D02*
X13637500Y-11000500D01*
X13650940Y-9945640D02*
X13680940Y-9975640D01*
X13680940Y-9945640D02*
X13650940Y-9975640D01*
X13659390Y-6069720D02*
X13689390Y-6099720D01*
X13689390Y-6069720D02*
X13659390Y-6099720D01*
X13659390Y-6539620D02*
X13689390Y-6569620D01*
X13689390Y-6539620D02*
X13659390Y-6569620D01*
X13672090Y-8495420D02*
X13702090Y-8525420D01*
X13702090Y-8495420D02*
X13672090Y-8525420D01*
X13710190Y-7835020D02*
X13740190Y-7865020D01*
X13740190Y-7835020D02*
X13710190Y-7865020D01*
X13713290Y-7704920D02*
X13743290Y-7734920D01*
X13743290Y-7704920D02*
X13713290Y-7734920D01*
X13719790Y-7577920D02*
X13749790Y-7607920D01*
X13749790Y-7577920D02*
X13719790Y-7607920D01*
X13726400Y-9357600D02*
X13756400Y-9387600D01*
X13756400Y-9357600D02*
X13726400Y-9387600D01*
X13735590Y-8939920D02*
X13765590Y-8969920D01*
X13765590Y-8939920D02*
X13735590Y-8969920D01*
X13742610Y-7470380D02*
X13772610Y-7500380D01*
X13772610Y-7470380D02*
X13742610Y-7500380D01*
X13751800Y-9764000D02*
X13781800Y-9794000D01*
X13781800Y-9764000D02*
X13751800Y-9794000D01*
X13764500Y-9484600D02*
X13794500Y-9514600D01*
X13794500Y-9484600D02*
X13764500Y-9514600D01*
X13769497Y-9935304D02*
X13799497Y-9965304D01*
X13799497Y-9935304D02*
X13769497Y-9965304D01*
X13773690Y-8597020D02*
X13803690Y-8627020D01*
X13803690Y-8597020D02*
X13773690Y-8627020D01*
X13815300Y-9548100D02*
X13845300Y-9578100D01*
X13845300Y-9548100D02*
X13815300Y-9578100D01*
X13815300Y-9649700D02*
X13845300Y-9679700D01*
X13845300Y-9649700D02*
X13815300Y-9679700D01*
X13824490Y-8114420D02*
X13854490Y-8144420D01*
X13854490Y-8114420D02*
X13824490Y-8144420D01*
X13848422Y-9457528D02*
X13878422Y-9487528D01*
X13878422Y-9457528D02*
X13848422Y-9487528D01*
X13891500Y-9941800D02*
X13921500Y-9971800D01*
X13921500Y-9941800D02*
X13891500Y-9971800D01*
X13929600Y-9802100D02*
X13959600Y-9832100D01*
X13959600Y-9802100D02*
X13929600Y-9832100D01*
X13942300Y-9497300D02*
X13972300Y-9527300D01*
X13972300Y-9497300D02*
X13942300Y-9527300D01*
X13951490Y-7577920D02*
X13981490Y-7607920D01*
X13981490Y-7577920D02*
X13951490Y-7607920D01*
X13951490Y-7704920D02*
X13981490Y-7734920D01*
X13981490Y-7704920D02*
X13951490Y-7734920D01*
X13951490Y-8317620D02*
X13981490Y-8347620D01*
X13981490Y-8317620D02*
X13951490Y-8347620D01*
X13961790Y-7870720D02*
X13991790Y-7900720D01*
X13991790Y-7870720D02*
X13961790Y-7900720D01*
X13964190Y-8190620D02*
X13994190Y-8220620D01*
X13994190Y-8190620D02*
X13964190Y-8220620D01*
X13967700Y-4811000D02*
X13997700Y-4841000D01*
X13997700Y-4811000D02*
X13967700Y-4841000D01*
X13976890Y-5777620D02*
X14006890Y-5807620D01*
X14006890Y-5777620D02*
X13976890Y-5807620D01*
X13976890Y-8419220D02*
X14006890Y-8449220D01*
X14006890Y-8419220D02*
X13976890Y-8449220D01*
X13976890Y-8939920D02*
X14006890Y-8969920D01*
X14006890Y-8939920D02*
X13976890Y-8969920D01*
X13976890Y-9613020D02*
X14006890Y-9643020D01*
X14006890Y-9613020D02*
X13976890Y-9643020D01*
X13981000Y-4576200D02*
X14011000Y-4606200D01*
X14011000Y-4576200D02*
X13981000Y-4606200D01*
X13993100Y-10868900D02*
X14023100Y-10898900D01*
X14023100Y-10868900D02*
X13993100Y-10898900D01*
X14037250Y-7338300D02*
X14067250Y-7368300D01*
X14067250Y-7338300D02*
X14037250Y-7368300D01*
X14040390Y-6069720D02*
X14070390Y-6099720D01*
X14070390Y-6069720D02*
X14040390Y-6099720D01*
X14056600Y-9916400D02*
X14086600Y-9946400D01*
X14086600Y-9916400D02*
X14056600Y-9946400D01*
X14141990Y-6768220D02*
X14171990Y-6798220D01*
X14171990Y-6768220D02*
X14141990Y-6798220D01*
X14159170Y-5331700D02*
X14189170Y-5361700D01*
X14189170Y-5331700D02*
X14159170Y-5361700D01*
X14167390Y-6603120D02*
X14197390Y-6633120D01*
X14197390Y-6603120D02*
X14167390Y-6633120D01*
X14179490Y-7206220D02*
X14209490Y-7236220D01*
X14209490Y-7206220D02*
X14179490Y-7236220D01*
X14209000Y-5049760D02*
X14239000Y-5079760D01*
X14239000Y-5049760D02*
X14209000Y-5079760D01*
X14209000Y-10297400D02*
X14239000Y-10327400D01*
X14239000Y-10297400D02*
X14209000Y-10327400D01*
X14221700Y-10602200D02*
X14251700Y-10632200D01*
X14251700Y-10602200D02*
X14221700Y-10632200D01*
X14255690Y-7348460D02*
X14285690Y-7378460D01*
X14285690Y-7348460D02*
X14255690Y-7378460D01*
X14268990Y-7631820D02*
X14298990Y-7661820D01*
X14298990Y-7631820D02*
X14268990Y-7661820D01*
X14270930Y-6002260D02*
X14300930Y-6032260D01*
X14300930Y-6002260D02*
X14270930Y-6032260D01*
X14294390Y-8558920D02*
X14324390Y-8588920D01*
X14324390Y-8558920D02*
X14294390Y-8588920D01*
X14294390Y-8800220D02*
X14324390Y-8830220D01*
X14324390Y-8800220D02*
X14294390Y-8830220D01*
X14294390Y-9041520D02*
X14324390Y-9071520D01*
X14324390Y-9041520D02*
X14294390Y-9071520D01*
X14297900Y-9916400D02*
X14327900Y-9946400D01*
X14327900Y-9916400D02*
X14297900Y-9946400D01*
X14331890Y-5799060D02*
X14361890Y-5829060D01*
X14361890Y-5799060D02*
X14331890Y-5829060D01*
X14357890Y-7809620D02*
X14387890Y-7839620D01*
X14387890Y-7809620D02*
X14357890Y-7839620D01*
X14361400Y-5357100D02*
X14391400Y-5387100D01*
X14391400Y-5357100D02*
X14361400Y-5387100D01*
X14372340Y-8125370D02*
X14402340Y-8155370D01*
X14402340Y-8125370D02*
X14372340Y-8155370D01*
X14392850Y-7206220D02*
X14422850Y-7236220D01*
X14422850Y-7206220D02*
X14392850Y-7236220D01*
X14433490Y-7390520D02*
X14463490Y-7420520D01*
X14463490Y-7390520D02*
X14433490Y-7420520D01*
X14446790Y-7885820D02*
X14476790Y-7915820D01*
X14476790Y-7885820D02*
X14446790Y-7915820D01*
X14459490Y-5599820D02*
X14489490Y-5629820D01*
X14489490Y-5599820D02*
X14459490Y-5629820D01*
X14488400Y-10284700D02*
X14518400Y-10314700D01*
X14518400Y-10284700D02*
X14488400Y-10314700D01*
X14510290Y-9778120D02*
X14540290Y-9808120D01*
X14540290Y-9778120D02*
X14510290Y-9808120D01*
X14535690Y-8558920D02*
X14565690Y-8588920D01*
X14565690Y-8558920D02*
X14535690Y-8588920D01*
X14535690Y-9041520D02*
X14565690Y-9071520D01*
X14565690Y-9041520D02*
X14535690Y-9071520D01*
X14549190Y-5384720D02*
X14579190Y-5414720D01*
X14579190Y-5384720D02*
X14549190Y-5414720D01*
X14561090Y-7009520D02*
X14591090Y-7039520D01*
X14591090Y-7009520D02*
X14561090Y-7039520D01*
X14561090Y-7708020D02*
X14591090Y-7738020D01*
X14591090Y-7708020D02*
X14561090Y-7738020D01*
X14561090Y-7911220D02*
X14591090Y-7941220D01*
X14591090Y-7911220D02*
X14561090Y-7941220D01*
X14599190Y-7339720D02*
X14629190Y-7369720D01*
X14629190Y-7339720D02*
X14599190Y-7369720D01*
X14611890Y-9384420D02*
X14641890Y-9414420D01*
X14641890Y-9384420D02*
X14611890Y-9414420D01*
X14640800Y-5801600D02*
X14670800Y-5831600D01*
X14670800Y-5801600D02*
X14640800Y-5831600D01*
X14643640Y-7828670D02*
X14673640Y-7858670D01*
X14673640Y-7828670D02*
X14643640Y-7858670D01*
X14688090Y-5371220D02*
X14718090Y-5401220D01*
X14718090Y-5371220D02*
X14688090Y-5401220D01*
X14691600Y-9573500D02*
X14721600Y-9603500D01*
X14721600Y-9573500D02*
X14691600Y-9603500D01*
X14712890Y-6456920D02*
X14742890Y-6486920D01*
X14742890Y-6456920D02*
X14712890Y-6486920D01*
X14717000Y-9916400D02*
X14747000Y-9946400D01*
X14747000Y-9916400D02*
X14717000Y-9946400D01*
X14719840Y-6698370D02*
X14749840Y-6728370D01*
X14749840Y-6698370D02*
X14719840Y-6728370D01*
X14719840Y-6888870D02*
X14749840Y-6918870D01*
X14749840Y-6888870D02*
X14719840Y-6918870D01*
X14719840Y-7066670D02*
X14749840Y-7096670D01*
X14749840Y-7066670D02*
X14719840Y-7096670D01*
X14763290Y-8280520D02*
X14793290Y-8310520D01*
X14793290Y-8280520D02*
X14763290Y-8310520D01*
X14764290Y-8050920D02*
X14794290Y-8080920D01*
X14794290Y-8050920D02*
X14764290Y-8080920D01*
X14776990Y-8558920D02*
X14806990Y-8588920D01*
X14806990Y-8558920D02*
X14776990Y-8588920D01*
X14776990Y-8800220D02*
X14806990Y-8830220D01*
X14806990Y-8800220D02*
X14776990Y-8830220D01*
X14776990Y-9041520D02*
X14806990Y-9071520D01*
X14806990Y-9041520D02*
X14776990Y-9071520D01*
X14780500Y-9510000D02*
X14810500Y-9540000D01*
X14810500Y-9510000D02*
X14780500Y-9540000D01*
X14789690Y-9435220D02*
X14819690Y-9465220D01*
X14819690Y-9435220D02*
X14789690Y-9465220D01*
X14801790Y-6456920D02*
X14831790Y-6486920D01*
X14831790Y-6456920D02*
X14801790Y-6486920D01*
X14853190Y-6793620D02*
X14883190Y-6823620D01*
X14883190Y-6793620D02*
X14853190Y-6823620D01*
X14853190Y-7327020D02*
X14883190Y-7357020D01*
X14883190Y-7327020D02*
X14853190Y-7357020D01*
X14853190Y-7606420D02*
X14883190Y-7636420D01*
X14883190Y-7606420D02*
X14853190Y-7636420D01*
X14865890Y-6615820D02*
X14895890Y-6645820D01*
X14895890Y-6615820D02*
X14865890Y-6645820D01*
X14865890Y-8012820D02*
X14895890Y-8042820D01*
X14895890Y-8012820D02*
X14865890Y-8042820D01*
X14869400Y-9408400D02*
X14899400Y-9438400D01*
X14899400Y-9408400D02*
X14869400Y-9438400D01*
X14882100Y-7097000D02*
X14912100Y-7127000D01*
X14912100Y-7097000D02*
X14882100Y-7127000D01*
X14894800Y-9738600D02*
X14924800Y-9768600D01*
X14924800Y-9738600D02*
X14894800Y-9768600D01*
X14916690Y-8419220D02*
X14946690Y-8449220D01*
X14946690Y-8419220D02*
X14916690Y-8449220D01*
X14958300Y-9217900D02*
X14988300Y-9247900D01*
X14988300Y-9217900D02*
X14958300Y-9247900D01*
X14992890Y-8050920D02*
X15022890Y-8080920D01*
X15022890Y-8050920D02*
X14992890Y-8080920D01*
X15009100Y-9611600D02*
X15039100Y-9641600D01*
X15039100Y-9611600D02*
X15009100Y-9641600D01*
X15010890Y-7912620D02*
X15040890Y-7942620D01*
X15040890Y-7912620D02*
X15010890Y-7942620D01*
X15018290Y-5714120D02*
X15048290Y-5744120D01*
X15048290Y-5714120D02*
X15018290Y-5744120D01*
X15043690Y-8919120D02*
X15073690Y-8949120D01*
X15073690Y-8919120D02*
X15043690Y-8949120D01*
X15047200Y-9916400D02*
X15077200Y-9946400D01*
X15077200Y-9916400D02*
X15047200Y-9946400D01*
X15114210Y-5981940D02*
X15144210Y-6011940D01*
X15144210Y-5981940D02*
X15114210Y-6011940D01*
X15114210Y-6129260D02*
X15144210Y-6159260D01*
X15144210Y-6129260D02*
X15114210Y-6159260D01*
X15119890Y-7974720D02*
X15149890Y-8004720D01*
X15149890Y-7974720D02*
X15119890Y-8004720D01*
X15134530Y-8601197D02*
X15164530Y-8631197D01*
X15164530Y-8601197D02*
X15134530Y-8631197D01*
X15154850Y-9197580D02*
X15184850Y-9227580D01*
X15184850Y-9197580D02*
X15154850Y-9227580D01*
X15157990Y-7758820D02*
X15187990Y-7788820D01*
X15187990Y-7758820D02*
X15157990Y-7788820D01*
X15170090Y-6042900D02*
X15200090Y-6072900D01*
X15200090Y-6042900D02*
X15170090Y-6072900D01*
X15170690Y-5371220D02*
X15200690Y-5401220D01*
X15200690Y-5371220D02*
X15170690Y-5401220D01*
X15171210Y-8419220D02*
X15201210Y-8449220D01*
X15201210Y-8419220D02*
X15171210Y-8449220D01*
X15200570Y-6129260D02*
X15230570Y-6159260D01*
X15230570Y-6129260D02*
X15200570Y-6159260D01*
X15202139Y-9255281D02*
X15232139Y-9285281D01*
X15232139Y-9255281D02*
X15202139Y-9285281D01*
X15208790Y-6819020D02*
X15238790Y-6849020D01*
X15238790Y-6819020D02*
X15208790Y-6849020D01*
X15234190Y-8317620D02*
X15264190Y-8347620D01*
X15264190Y-8317620D02*
X15234190Y-8347620D01*
X15272290Y-6946020D02*
X15302290Y-6976020D01*
X15302290Y-6946020D02*
X15272290Y-6976020D01*
X15297690Y-8927220D02*
X15327690Y-8957220D01*
X15327690Y-8927220D02*
X15297690Y-8957220D01*
X15312330Y-5738100D02*
X15342330Y-5768100D01*
X15342330Y-5738100D02*
X15312330Y-5768100D01*
X15323090Y-5371220D02*
X15353090Y-5401220D01*
X15353090Y-5371220D02*
X15323090Y-5401220D01*
X15323090Y-8749420D02*
X15353090Y-8779420D01*
X15353090Y-8749420D02*
X15323090Y-8779420D01*
X15323561Y-9384350D02*
X15353561Y-9414350D01*
X15353561Y-9384350D02*
X15323561Y-9414350D01*
X15325163Y-8626655D02*
X15355163Y-8656655D01*
X15355163Y-8626655D02*
X15325163Y-8656655D01*
X15335790Y-8546220D02*
X15365790Y-8576220D01*
X15365790Y-8546220D02*
X15335790Y-8576220D01*
X15339300Y-9306800D02*
X15369300Y-9336800D01*
X15369300Y-9306800D02*
X15339300Y-9336800D01*
X15352970Y-8146020D02*
X15382970Y-8176020D01*
X15382970Y-8146020D02*
X15352970Y-8176020D01*
X15363130Y-9781780D02*
X15393130Y-9811780D01*
X15393130Y-9781780D02*
X15363130Y-9811780D01*
X15373890Y-6946020D02*
X15403890Y-6976020D01*
X15403890Y-6946020D02*
X15373890Y-6976020D01*
X15377400Y-9167100D02*
X15407400Y-9197100D01*
X15407400Y-9167100D02*
X15377400Y-9197100D01*
X15378370Y-7871700D02*
X15408370Y-7901700D01*
X15408370Y-7871700D02*
X15378370Y-7901700D01*
X15385990Y-6660120D02*
X15415990Y-6690120D01*
X15415990Y-6660120D02*
X15385990Y-6690120D01*
X15388530Y-8471140D02*
X15418530Y-8501140D01*
X15418530Y-8471140D02*
X15388530Y-8501140D01*
X15390100Y-8925800D02*
X15420100Y-8955800D01*
X15420100Y-8925800D02*
X15390100Y-8955800D01*
X15402800Y-9916400D02*
X15432800Y-9946400D01*
X15432800Y-9916400D02*
X15402800Y-9946400D01*
X15424690Y-7098420D02*
X15454690Y-7128420D01*
X15454690Y-7098420D02*
X15424690Y-7128420D01*
X15446205Y-8816805D02*
X15476205Y-8846805D01*
X15476205Y-8816805D02*
X15446205Y-8846805D01*
X15449490Y-5870180D02*
X15479490Y-5900180D01*
X15479490Y-5870180D02*
X15449490Y-5900180D01*
X15450090Y-7504820D02*
X15480090Y-7534820D01*
X15480090Y-7504820D02*
X15450090Y-7534820D01*
X15466300Y-5369800D02*
X15496300Y-5399800D01*
X15496300Y-5369800D02*
X15466300Y-5399800D01*
X15466300Y-8989300D02*
X15496300Y-9019300D01*
X15496300Y-8989300D02*
X15466300Y-9019300D01*
X15474890Y-6799820D02*
X15504890Y-6829820D01*
X15504890Y-6799820D02*
X15474890Y-6829820D01*
X15491700Y-4976100D02*
X15521700Y-5006100D01*
X15521700Y-4976100D02*
X15491700Y-5006100D01*
X15504400Y-8862300D02*
X15534400Y-8892300D01*
X15534400Y-8862300D02*
X15504400Y-8892300D01*
X15504400Y-9154400D02*
X15534400Y-9184400D01*
X15534400Y-9154400D02*
X15504400Y-9184400D01*
X15504400Y-9294100D02*
X15534400Y-9324100D01*
X15534400Y-9294100D02*
X15504400Y-9324100D01*
X15514562Y-9047300D02*
X15544562Y-9077300D01*
X15544562Y-9047300D02*
X15514562Y-9077300D01*
X15520610Y-8679420D02*
X15550610Y-8709420D01*
X15550610Y-8679420D02*
X15520610Y-8709420D01*
X15556170Y-5692380D02*
X15586170Y-5722380D01*
X15586170Y-5692380D02*
X15556170Y-5722380D01*
X15557290Y-5879220D02*
X15587290Y-5909220D01*
X15587290Y-5879220D02*
X15557290Y-5909220D01*
X15562370Y-8139820D02*
X15592370Y-8169820D01*
X15592370Y-8139820D02*
X15562370Y-8169820D01*
X15567900Y-10284700D02*
X15597900Y-10314700D01*
X15597900Y-10284700D02*
X15567900Y-10314700D01*
X15576790Y-6057320D02*
X15606790Y-6087320D01*
X15606790Y-6057320D02*
X15576790Y-6087320D01*
X15576790Y-6146220D02*
X15606790Y-6176220D01*
X15606790Y-6146220D02*
X15576790Y-6176220D01*
X15581200Y-4576200D02*
X15611200Y-4606200D01*
X15611200Y-4576200D02*
X15581200Y-4606200D01*
X15589190Y-6495020D02*
X15619190Y-6525020D01*
X15619190Y-6495020D02*
X15589190Y-6525020D01*
X15601890Y-9781780D02*
X15631890Y-9811780D01*
X15631890Y-9781780D02*
X15601890Y-9811780D01*
X15627590Y-6819520D02*
X15657590Y-6849520D01*
X15657590Y-6819520D02*
X15627590Y-6849520D01*
X15632370Y-8450820D02*
X15662370Y-8480820D01*
X15662370Y-8450820D02*
X15632370Y-8480820D01*
X15639990Y-6609320D02*
X15669990Y-6639320D01*
X15669990Y-6609320D02*
X15639990Y-6639320D01*
X15683170Y-8308580D02*
X15713170Y-8338580D01*
X15713170Y-8308580D02*
X15683170Y-8338580D01*
X15720300Y-9916400D02*
X15750300Y-9946400D01*
X15750300Y-9916400D02*
X15720300Y-9946400D01*
X15759370Y-5743180D02*
X15789370Y-5773180D01*
X15789370Y-5743180D02*
X15759370Y-5773180D01*
X15769530Y-8019020D02*
X15799530Y-8049020D01*
X15799530Y-8019020D02*
X15769530Y-8049020D01*
X15809200Y-5141200D02*
X15839200Y-5171200D01*
X15839200Y-5141200D02*
X15809200Y-5171200D01*
X15885400Y-9357600D02*
X15915400Y-9387600D01*
X15915400Y-9357600D02*
X15885400Y-9387600D01*
X15894590Y-8025520D02*
X15924590Y-8055520D01*
X15924590Y-8025520D02*
X15894590Y-8055520D01*
X15930819Y-9712139D02*
X15960819Y-9742139D01*
X15960819Y-9712139D02*
X15930819Y-9742139D01*
X16008890Y-8139820D02*
X16038890Y-8169820D01*
X16038890Y-8139820D02*
X16008890Y-8169820D01*
X16008890Y-8419220D02*
X16038890Y-8449220D01*
X16038890Y-8419220D02*
X16008890Y-8449220D01*
X16012400Y-9916400D02*
X16042400Y-9946400D01*
X16042400Y-9916400D02*
X16012400Y-9946400D01*
X16025100Y-9383000D02*
X16055100Y-9413000D01*
X16055100Y-9383000D02*
X16025100Y-9413000D01*
X16025100Y-9548100D02*
X16055100Y-9578100D01*
X16055100Y-9548100D02*
X16025100Y-9578100D01*
X16033690Y-5885420D02*
X16063690Y-5915420D01*
X16063690Y-5885420D02*
X16033690Y-5915420D01*
X16033690Y-6972540D02*
X16063690Y-7002540D01*
X16063690Y-6972540D02*
X16033690Y-7002540D01*
X16037800Y-8227300D02*
X16067800Y-8257300D01*
X16067800Y-8227300D02*
X16037800Y-8257300D01*
X16050500Y-10233900D02*
X16080500Y-10263900D01*
X16080500Y-10233900D02*
X16050500Y-10263900D01*
X16063200Y-4576200D02*
X16093200Y-4606200D01*
X16093200Y-4576200D02*
X16063200Y-4606200D01*
X16065737Y-8477633D02*
X16095737Y-8507633D01*
X16095737Y-8477633D02*
X16065737Y-8507633D01*
X16094650Y-6332460D02*
X16124650Y-6362460D01*
X16124650Y-6332460D02*
X16094650Y-6362460D01*
X16099730Y-5722860D02*
X16129730Y-5752860D01*
X16129730Y-5722860D02*
X16099730Y-5752860D01*
X16099730Y-6627100D02*
X16129730Y-6657100D01*
X16129730Y-6627100D02*
X16099730Y-6657100D01*
X16165770Y-8420340D02*
X16195770Y-8450340D01*
X16195770Y-8420340D02*
X16165770Y-8450340D01*
X16165770Y-8623540D02*
X16195770Y-8653540D01*
X16195770Y-8623540D02*
X16165770Y-8653540D01*
X16171844Y-9160056D02*
X16201844Y-9190056D01*
X16201844Y-9160056D02*
X16171844Y-9190056D01*
X16175930Y-8826740D02*
X16205930Y-8856740D01*
X16205930Y-8826740D02*
X16175930Y-8856740D01*
X16175930Y-8968980D02*
X16205930Y-8998980D01*
X16205930Y-8968980D02*
X16175930Y-8998980D01*
X16177500Y-9319500D02*
X16207500Y-9349500D01*
X16207500Y-9319500D02*
X16177500Y-9349500D01*
X16190200Y-9535400D02*
X16220200Y-9565400D01*
X16220200Y-9535400D02*
X16190200Y-9565400D01*
X16202900Y-9789400D02*
X16232900Y-9819400D01*
X16232900Y-9789400D02*
X16202900Y-9819400D01*
X16226730Y-6723620D02*
X16256730Y-6753620D01*
X16256730Y-6723620D02*
X16226730Y-6753620D01*
X16231810Y-8897860D02*
X16261810Y-8927860D01*
X16261810Y-8897860D02*
X16231810Y-8927860D01*
X16231810Y-9029940D02*
X16261810Y-9059940D01*
X16261810Y-9029940D02*
X16231810Y-9059940D01*
X16236890Y-7805660D02*
X16266890Y-7835660D01*
X16266890Y-7805660D02*
X16236890Y-7835660D01*
X16249590Y-5885420D02*
X16279590Y-5915420D01*
X16279590Y-5885420D02*
X16249590Y-5915420D01*
X16253700Y-7478000D02*
X16283700Y-7508000D01*
X16283700Y-7478000D02*
X16253700Y-7508000D01*
X16253700Y-9154400D02*
X16283700Y-9184400D01*
X16283700Y-9154400D02*
X16253700Y-9184400D01*
X16262290Y-7206220D02*
X16292290Y-7236220D01*
X16292290Y-7206220D02*
X16262290Y-7236220D01*
X16267370Y-8720060D02*
X16297370Y-8750060D01*
X16297370Y-8720060D02*
X16267370Y-8750060D01*
X16291800Y-7973300D02*
X16321800Y-8003300D01*
X16321800Y-7973300D02*
X16291800Y-8003300D01*
X16291800Y-8252700D02*
X16321800Y-8282700D01*
X16321800Y-8252700D02*
X16291800Y-8282700D01*
X16291800Y-9916400D02*
X16321800Y-9946400D01*
X16321800Y-9916400D02*
X16291800Y-9946400D01*
X16342600Y-9319500D02*
X16372600Y-9349500D01*
X16372600Y-9319500D02*
X16342600Y-9349500D01*
X16351190Y-5885420D02*
X16381190Y-5915420D01*
X16381190Y-5885420D02*
X16351190Y-5915420D01*
X16353730Y-5727940D02*
X16383730Y-5757940D01*
X16383730Y-5727940D02*
X16353730Y-5757940D01*
X16358810Y-6809980D02*
X16388810Y-6839980D01*
X16388810Y-6809980D02*
X16358810Y-6839980D01*
X16424850Y-8110460D02*
X16454850Y-8140460D01*
X16454850Y-8110460D02*
X16424850Y-8140460D01*
X16424850Y-8425420D02*
X16454850Y-8455420D01*
X16454850Y-8425420D02*
X16424850Y-8455420D01*
X16424850Y-8720060D02*
X16454850Y-8750060D01*
X16454850Y-8720060D02*
X16424850Y-8750060D01*
X16444200Y-10221200D02*
X16474200Y-10251200D01*
X16474200Y-10221200D02*
X16444200Y-10251200D01*
X16456900Y-7008100D02*
X16486900Y-7038100D01*
X16486900Y-7008100D02*
X16456900Y-7038100D01*
X16485810Y-6276580D02*
X16515810Y-6306580D01*
X16515810Y-6276580D02*
X16485810Y-6306580D01*
X16490890Y-5796520D02*
X16520890Y-5826520D01*
X16520890Y-5796520D02*
X16490890Y-5826520D01*
X16571200Y-4576200D02*
X16601200Y-4606200D01*
X16601200Y-4576200D02*
X16571200Y-4606200D01*
X16622000Y-6830300D02*
X16652000Y-6860300D01*
X16652000Y-6830300D02*
X16622000Y-6860300D01*
X16685500Y-6703300D02*
X16715500Y-6733300D01*
X16715500Y-6703300D02*
X16685500Y-6733300D01*
X16699170Y-7231620D02*
X16729170Y-7261620D01*
X16729170Y-7231620D02*
X16699170Y-7261620D01*
X16723600Y-9116300D02*
X16753600Y-9146300D01*
X16753600Y-9116300D02*
X16723600Y-9146300D01*
X16729650Y-7876780D02*
X16759650Y-7906780D01*
X16759650Y-7876780D02*
X16729650Y-7906780D01*
X16744890Y-5748260D02*
X16774890Y-5778260D01*
X16774890Y-5748260D02*
X16744890Y-5778260D01*
X16749000Y-8290800D02*
X16779000Y-8320800D01*
X16779000Y-8290800D02*
X16749000Y-8320800D01*
X16749000Y-9916400D02*
X16779000Y-9946400D01*
X16779000Y-9916400D02*
X16749000Y-9946400D01*
X16787100Y-7033500D02*
X16817100Y-7063500D01*
X16817100Y-7033500D02*
X16787100Y-7063500D01*
X16790610Y-7500860D02*
X16820610Y-7530860D01*
X16820610Y-7500860D02*
X16790610Y-7530860D01*
X16795690Y-8171420D02*
X16825690Y-8201420D01*
X16825690Y-8171420D02*
X16795690Y-8201420D01*
X16799800Y-6157200D02*
X16829800Y-6187200D01*
X16829800Y-6157200D02*
X16799800Y-6187200D01*
X16799800Y-8506700D02*
X16829800Y-8536700D01*
X16829800Y-8506700D02*
X16799800Y-8536700D01*
X16799800Y-8811500D02*
X16829800Y-8841500D01*
X16829800Y-8811500D02*
X16799800Y-8841500D01*
X16799800Y-9548100D02*
X16829800Y-9578100D01*
X16829800Y-9548100D02*
X16799800Y-9578100D01*
X16863300Y-10195800D02*
X16893300Y-10225800D01*
X16893300Y-10195800D02*
X16863300Y-10225800D01*
X16886103Y-7620608D02*
X16916103Y-7650608D01*
X16916103Y-7620608D02*
X16886103Y-7650608D01*
X16897290Y-6596620D02*
X16927290Y-6626620D01*
X16927290Y-6596620D02*
X16897290Y-6626620D01*
X16897890Y-5714120D02*
X16927890Y-5744120D01*
X16927890Y-5714120D02*
X16897890Y-5744120D01*
X16914100Y-9802100D02*
X16944100Y-9832100D01*
X16944100Y-9802100D02*
X16914100Y-9832100D01*
X16939500Y-8636240D02*
X16969500Y-8666240D01*
X16969500Y-8636240D02*
X16939500Y-8666240D01*
X16939500Y-9586200D02*
X16969500Y-9616200D01*
X16969500Y-9586200D02*
X16939500Y-9616200D01*
X16952200Y-6766800D02*
X16982200Y-6796800D01*
X16982200Y-6766800D02*
X16952200Y-6796800D01*
X16964900Y-9129000D02*
X16994900Y-9159000D01*
X16994900Y-9129000D02*
X16964900Y-9159000D01*
X17003000Y-8887700D02*
X17033000Y-8917700D01*
X17033000Y-8887700D02*
X17003000Y-8917700D01*
X17021984Y-7233347D02*
X17051984Y-7263347D01*
X17051984Y-7233347D02*
X17021984Y-7263347D01*
X17028400Y-9916400D02*
X17058400Y-9946400D01*
X17058400Y-9916400D02*
X17028400Y-9946400D01*
X17053800Y-6157200D02*
X17083800Y-6187200D01*
X17083800Y-6157200D02*
X17053800Y-6187200D01*
X17053800Y-7757400D02*
X17083800Y-7787400D01*
X17083800Y-7757400D02*
X17053800Y-7787400D01*
X17066500Y-7986000D02*
X17096500Y-8016000D01*
X17096500Y-7986000D02*
X17066500Y-8016000D01*
X17117300Y-8290800D02*
X17147300Y-8320800D01*
X17147300Y-8290800D02*
X17117300Y-8320800D01*
X17130970Y-6286740D02*
X17160970Y-6316740D01*
X17160970Y-6286740D02*
X17130970Y-6316740D01*
X17155400Y-9167100D02*
X17185400Y-9197100D01*
X17185400Y-9167100D02*
X17155400Y-9197100D01*
X17155400Y-9306800D02*
X17185400Y-9336800D01*
X17185400Y-9306800D02*
X17155400Y-9336800D01*
X17180800Y-7020800D02*
X17210800Y-7050800D01*
X17210800Y-7020800D02*
X17180800Y-7050800D01*
X17186807Y-6720851D02*
X17216807Y-6750851D01*
X17216807Y-6720851D02*
X17186807Y-6750851D01*
X17227490Y-5743180D02*
X17257490Y-5773180D01*
X17257490Y-5743180D02*
X17227490Y-5773180D01*
X17231600Y-10170400D02*
X17261600Y-10200400D01*
X17261600Y-10170400D02*
X17231600Y-10200400D01*
X17269123Y-9001240D02*
X17299123Y-9031240D01*
X17299123Y-9001240D02*
X17269123Y-9031240D01*
X17307800Y-7617700D02*
X17337800Y-7647700D01*
X17337800Y-7617700D02*
X17307800Y-7647700D01*
X17307800Y-9916400D02*
X17337800Y-9946400D01*
X17337800Y-9916400D02*
X17307800Y-9946400D01*
X17320500Y-7236700D02*
X17350500Y-7266700D01*
X17350500Y-7236700D02*
X17320500Y-7266700D01*
X17396700Y-6487400D02*
X17426700Y-6517400D01*
X17426700Y-6487400D02*
X17396700Y-6517400D01*
X17396700Y-7770100D02*
X17426700Y-7800100D01*
X17426700Y-7770100D02*
X17396700Y-7800100D01*
X17396700Y-7986000D02*
X17426700Y-8016000D01*
X17426700Y-7986000D02*
X17396700Y-8016000D01*
X17396700Y-8138400D02*
X17426700Y-8168400D01*
X17426700Y-8138400D02*
X17396700Y-8168400D01*
X17396700Y-8290800D02*
X17426700Y-8320800D01*
X17426700Y-8290800D02*
X17396700Y-8320800D01*
X17409400Y-7414500D02*
X17439400Y-7444500D01*
X17439400Y-7414500D02*
X17409400Y-7444500D01*
X17409400Y-9129000D02*
X17439400Y-9159000D01*
X17439400Y-9129000D02*
X17409400Y-9159000D01*
X17434800Y-6855700D02*
X17464800Y-6885700D01*
X17464800Y-6855700D02*
X17434800Y-6885700D01*
X17434800Y-7058900D02*
X17464800Y-7088900D01*
X17464800Y-7058900D02*
X17434800Y-7088900D01*
X17447500Y-9687800D02*
X17477500Y-9717800D01*
X17477500Y-9687800D02*
X17447500Y-9717800D01*
X17460200Y-9332200D02*
X17490200Y-9362200D01*
X17490200Y-9332200D02*
X17460200Y-9362200D01*
X17472900Y-6106400D02*
X17502900Y-6136400D01*
X17502900Y-6106400D02*
X17472900Y-6136400D01*
X17485600Y-8862300D02*
X17515600Y-8892300D01*
X17515600Y-8862300D02*
X17485600Y-8892300D01*
X17612600Y-9916400D02*
X17642600Y-9946400D01*
X17642600Y-9916400D02*
X17612600Y-9946400D01*
X17638000Y-5877800D02*
X17668000Y-5907800D01*
X17668000Y-5877800D02*
X17638000Y-5907800D01*
X17638000Y-10157700D02*
X17668000Y-10187700D01*
X17668000Y-10157700D02*
X17638000Y-10187700D01*
X17650700Y-5623800D02*
X17680700Y-5653800D01*
X17680700Y-5623800D02*
X17650700Y-5653800D01*
X17701500Y-9332200D02*
X17731500Y-9362200D01*
X17731500Y-9332200D02*
X17701500Y-9362200D01*
X17714200Y-9687800D02*
X17744200Y-9717800D01*
X17744200Y-9687800D02*
X17714200Y-9717800D01*
X17739600Y-8303500D02*
X17769600Y-8333500D01*
X17769600Y-8303500D02*
X17739600Y-8333500D01*
X17917400Y-9141700D02*
X17947400Y-9171700D01*
X17947400Y-9141700D02*
X17917400Y-9171700D01*
X17942800Y-6258800D02*
X17972800Y-6288800D01*
X17972800Y-6258800D02*
X17942800Y-6288800D01*
X17942800Y-6639800D02*
X17972800Y-6669800D01*
X17972800Y-6639800D02*
X17942800Y-6669800D01*
X17942800Y-7008100D02*
X17972800Y-7038100D01*
X17972800Y-7008100D02*
X17942800Y-7038100D01*
X17942800Y-7376400D02*
X17972800Y-7406400D01*
X17972800Y-7376400D02*
X17942800Y-7406400D01*
X17942800Y-7732000D02*
X17972800Y-7762000D01*
X17972800Y-7732000D02*
X17942800Y-7762000D01*
X17942800Y-8125700D02*
X17972800Y-8155700D01*
X17972800Y-8125700D02*
X17942800Y-8155700D01*
X17968200Y-8862300D02*
X17998200Y-8892300D01*
X17998200Y-8862300D02*
X17968200Y-8892300D01*
X17968200Y-9675100D02*
X17998200Y-9705100D01*
X17998200Y-9675100D02*
X17968200Y-9705100D01*
X17968200Y-9916400D02*
X17998200Y-9946400D01*
X17998200Y-9916400D02*
X17968200Y-9946400D01*
X17980900Y-5890500D02*
X18010900Y-5920500D01*
X18010900Y-5890500D02*
X17980900Y-5920500D01*
X18019000Y-4588900D02*
X18049000Y-4618900D01*
X18049000Y-4588900D02*
X18019000Y-4618900D01*
X18019000Y-4938000D02*
X18049000Y-4968000D01*
X18049000Y-4938000D02*
X18019000Y-4968000D01*
X18019000Y-5242800D02*
X18049000Y-5272800D01*
X18049000Y-5242800D02*
X18019000Y-5272800D01*
X18019000Y-5623800D02*
X18049000Y-5653800D01*
X18049000Y-5623800D02*
X18019000Y-5653800D01*
X18019000Y-9471900D02*
X18049000Y-9501900D01*
X18049000Y-9471900D02*
X18019000Y-9501900D01*
X18031700Y-10157700D02*
X18061700Y-10187700D01*
X18061700Y-10157700D02*
X18031700Y-10187700D01*
X18057100Y-8303500D02*
X18087100Y-8333500D01*
X18087100Y-8303500D02*
X18057100Y-8333500D01*
X18222200Y-8709900D02*
X18252200Y-8739900D01*
X18252200Y-8709900D02*
X18222200Y-8739900D01*
X18222200Y-9916400D02*
X18252200Y-9946400D01*
X18252200Y-9916400D02*
X18222200Y-9946400D01*
X18323800Y-8316200D02*
X18353800Y-8346200D01*
X18353800Y-8316200D02*
X18323800Y-8346200D01*
X18323800Y-9802100D02*
X18353800Y-9832100D01*
X18353800Y-9802100D02*
X18323800Y-9832100D01*
X18336500Y-9052800D02*
X18366500Y-9082800D01*
X18366500Y-9052800D02*
X18336500Y-9082800D01*
X18349200Y-9446500D02*
X18379200Y-9476500D01*
X18379200Y-9446500D02*
X18349200Y-9476500D01*
X18361900Y-5877800D02*
X18391900Y-5907800D01*
X18391900Y-5877800D02*
X18361900Y-5907800D01*
X18374600Y-5623800D02*
X18404600Y-5653800D01*
X18404600Y-5623800D02*
X18374600Y-5653800D01*
X18374600Y-10183100D02*
X18404600Y-10213100D01*
X18404600Y-10183100D02*
X18374600Y-10213100D01*
X18387300Y-8519400D02*
X18417300Y-8549400D01*
X18417300Y-8519400D02*
X18387300Y-8549400D01*
X18412700Y-7503400D02*
X18442700Y-7533400D01*
X18442700Y-7503400D02*
X18412700Y-7533400D01*
X18415240Y-4602720D02*
X18445240Y-4632720D01*
X18445240Y-4602720D02*
X18415240Y-4632720D01*
X18415240Y-5004040D02*
X18445240Y-5034040D01*
X18445240Y-5004040D02*
X18415240Y-5034040D01*
X18425400Y-6030200D02*
X18455400Y-6060200D01*
X18455400Y-6030200D02*
X18425400Y-6060200D01*
X18425400Y-6398500D02*
X18455400Y-6428500D01*
X18455400Y-6398500D02*
X18425400Y-6428500D01*
X18425400Y-6766800D02*
X18455400Y-6796800D01*
X18455400Y-6766800D02*
X18425400Y-6796800D01*
X18425400Y-7147800D02*
X18455400Y-7177800D01*
X18455400Y-7147800D02*
X18425400Y-7177800D01*
X18425400Y-7884400D02*
X18455400Y-7914400D01*
X18455400Y-7884400D02*
X18425400Y-7914400D01*
X18501600Y-9560800D02*
X18531600Y-9590800D01*
X18531600Y-9560800D02*
X18501600Y-9590800D01*
X18514300Y-5877800D02*
X18544300Y-5907800D01*
X18544300Y-5877800D02*
X18514300Y-5907800D01*
X18514300Y-6021250D02*
X18544300Y-6051250D01*
X18544300Y-6021250D02*
X18514300Y-6051250D01*
X18514300Y-6589000D02*
X18544300Y-6619000D01*
X18544300Y-6589000D02*
X18514300Y-6619000D01*
X18514300Y-6745150D02*
X18544300Y-6775150D01*
X18544300Y-6745150D02*
X18514300Y-6775150D01*
X18514300Y-6970000D02*
X18544300Y-7000000D01*
X18544300Y-6970000D02*
X18514300Y-7000000D01*
X18514300Y-7126150D02*
X18544300Y-7156150D01*
X18544300Y-7126150D02*
X18514300Y-7156150D01*
X18514300Y-7338300D02*
X18544300Y-7368300D01*
X18544300Y-7338300D02*
X18514300Y-7368300D01*
X18514300Y-7478000D02*
X18544300Y-7508000D01*
X18544300Y-7478000D02*
X18514300Y-7508000D01*
X18514300Y-7706600D02*
X18544300Y-7736600D01*
X18544300Y-7706600D02*
X18514300Y-7736600D01*
X18514300Y-7862750D02*
X18544300Y-7892750D01*
X18544300Y-7862750D02*
X18514300Y-7892750D01*
X18514300Y-8087600D02*
X18544300Y-8117600D01*
X18544300Y-8087600D02*
X18514300Y-8117600D01*
X18514300Y-8240000D02*
X18544300Y-8270000D01*
X18544300Y-8240000D02*
X18514300Y-8270000D01*
X18615900Y-5369800D02*
X18645900Y-5399800D01*
X18645900Y-5369800D02*
X18615900Y-5399800D01*
X18615900Y-9167100D02*
X18645900Y-9197100D01*
X18645900Y-9167100D02*
X18615900Y-9197100D01*
X18628600Y-5712700D02*
X18658600Y-5742700D01*
X18658600Y-5712700D02*
X18628600Y-5742700D01*
X18628600Y-8316200D02*
X18658600Y-8346200D01*
X18658600Y-8316200D02*
X18628600Y-8346200D01*
X18639399Y-8852886D02*
X18669399Y-8882886D01*
X18669399Y-8852886D02*
X18639399Y-8882886D01*
X18654000Y-9916400D02*
X18684000Y-9946400D01*
X18684000Y-9916400D02*
X18654000Y-9946400D01*
X18806400Y-10145000D02*
X18836400Y-10175000D01*
X18836400Y-10145000D02*
X18806400Y-10175000D01*
X18958800Y-9497300D02*
X18988800Y-9527300D01*
X18988800Y-9497300D02*
X18958800Y-9527300D01*
X18971500Y-9865600D02*
X19001500Y-9895600D01*
X19001500Y-9865600D02*
X18971500Y-9895600D01*
X19047700Y-5496800D02*
X19077700Y-5526800D01*
X19077700Y-5496800D02*
X19047700Y-5526800D01*
X19047700Y-9929100D02*
X19077700Y-9959100D01*
X19077700Y-9929100D02*
X19047700Y-9959100D01*
X19111200Y-9167100D02*
X19141200Y-9197100D01*
X19141200Y-9167100D02*
X19111200Y-9197100D01*
X19200100Y-10132300D02*
X19230100Y-10162300D01*
X19230100Y-10132300D02*
X19200100Y-10162300D01*
X19377900Y-5547600D02*
X19407900Y-5577600D01*
X19407900Y-5547600D02*
X19377900Y-5577600D01*
X19403300Y-9167100D02*
X19433300Y-9197100D01*
X19433300Y-9167100D02*
X19403300Y-9197100D01*
X19441400Y-9268700D02*
X19471400Y-9298700D01*
X19471400Y-9268700D02*
X19441400Y-9298700D01*
X19441400Y-9637000D02*
X19471400Y-9667000D01*
X19471400Y-9637000D02*
X19441400Y-9667000D01*
X19492200Y-5865100D02*
X19522200Y-5895100D01*
X19522200Y-5865100D02*
X19492200Y-5895100D01*
X19517600Y-8951200D02*
X19547600Y-8981200D01*
X19547600Y-8951200D02*
X19517600Y-8981200D01*
X19530300Y-9852900D02*
X19560300Y-9882900D01*
X19560300Y-9852900D02*
X19530300Y-9882900D01*
X19543000Y-6144500D02*
X19573000Y-6174500D01*
X19573000Y-6144500D02*
X19543000Y-6174500D01*
X19543000Y-6385800D02*
X19573000Y-6415800D01*
X19573000Y-6385800D02*
X19543000Y-6415800D01*
X19593800Y-9352520D02*
X19623800Y-9382520D01*
X19623800Y-9352520D02*
X19593800Y-9382520D01*
X19593800Y-10094200D02*
X19623800Y-10124200D01*
X19623800Y-10094200D02*
X19593800Y-10124200D01*
X19606500Y-9116300D02*
X19636500Y-9146300D01*
X19636500Y-9116300D02*
X19606500Y-9146300D01*
X19606500Y-9662400D02*
X19636500Y-9692400D01*
X19636500Y-9662400D02*
X19606500Y-9692400D01*
X19624280Y-4607800D02*
X19654280Y-4637800D01*
X19654280Y-4607800D02*
X19624280Y-4637800D01*
X19624280Y-5400280D02*
X19654280Y-5430280D01*
X19654280Y-5400280D02*
X19624280Y-5430280D01*
X19624280Y-5730480D02*
X19654280Y-5760480D01*
X19654280Y-5730480D02*
X19624280Y-5760480D01*
D13*
X14559200Y-4788500D02*
G75*
G03*
X14559200Y-4788500I-30000J0D01*
G01*
D11*
X14559200Y-4818500D02*
X14559200Y-4758500D01*
X14499200Y-4818500D02*
X14499200Y-4758500D01*
X14559200Y-4758500D02*
G75*
G03*
X14499200Y-4758500I-30000J0D01*
G01*
X14499200Y-4818500D02*
G75*
G03*
X14559200Y-4818500I30000J0D01*
G01*
D13*
X14559200Y-5206500D02*
G75*
G03*
X14559200Y-5206500I-30000J0D01*
G01*
D11*
X14559200Y-5261500D02*
X14559200Y-5151500D01*
X14499200Y-5261500D02*
X14499200Y-5151500D01*
X14559200Y-5151500D02*
G75*
G03*
X14499200Y-5151500I-30000J0D01*
G01*
X14499200Y-5261500D02*
G75*
G03*
X14559200Y-5261500I30000J0D01*
G01*
D13*
X15423200Y-4788500D02*
G75*
G03*
X15423200Y-4788500I-30000J0D01*
G01*
D11*
X15423200Y-4818500D02*
X15423200Y-4758500D01*
X15363200Y-4818500D02*
X15363200Y-4758500D01*
X15423200Y-4758500D02*
G75*
G03*
X15363200Y-4758500I-30000J0D01*
G01*
X15363200Y-4818500D02*
G75*
G03*
X15423200Y-4818500I30000J0D01*
G01*
D13*
X15423200Y-5206500D02*
G75*
G03*
X15423200Y-5206500I-30000J0D01*
G01*
D11*
X15423200Y-5261500D02*
X15423200Y-5151500D01*
X15363200Y-5261500D02*
X15363200Y-5151500D01*
X15423200Y-5151500D02*
G75*
G03*
X15363200Y-5151500I-30000J0D01*
G01*
X15363200Y-5261500D02*
G75*
G03*
X15423200Y-5261500I30000J0D01*
G01*
D10*
X14250000Y-4617400D02*
X14250000Y-4717400D01*
X14200000Y-4667400D02*
X14300000Y-4667400D01*
X15281610Y-9568980D02*
X15281610Y-9668980D01*
X15231610Y-9618980D02*
X15331610Y-9618980D01*
X15503190Y-8308020D02*
X15503190Y-8408020D01*
X15453190Y-8358020D02*
X15553190Y-8358020D01*
X15535610Y-9568980D02*
X15535610Y-9668980D01*
X15485610Y-9618980D02*
X15585610Y-9618980D01*
X15789610Y-9568980D02*
X15789610Y-9668980D01*
X15739610Y-9618980D02*
X15839610Y-9618980D01*
D14*
X11275753Y-10995573D02*
X11275753Y-10911427D01*
X11191607Y-10911427D01*
X11191607Y-10995573D01*
X11275753Y-10995573D01*
X11529753Y-10995573D02*
X11529753Y-10911427D01*
X11445607Y-10911427D01*
X11445607Y-10995573D01*
X11529753Y-10995573D01*
X11783753Y-10995573D02*
X11783753Y-10911427D01*
X11699607Y-10911427D01*
X11699607Y-10995573D01*
X11783753Y-10995573D01*
X12037753Y-10995573D02*
X12037753Y-10911427D01*
X11953607Y-10911427D01*
X11953607Y-10995573D01*
X12037753Y-10995573D01*
X12291753Y-10995573D02*
X12291753Y-10911427D01*
X12207607Y-10911427D01*
X12207607Y-10995573D01*
X12291753Y-10995573D01*
X12545753Y-10995573D02*
X12545753Y-10911427D01*
X12461607Y-10911427D01*
X12461607Y-10995573D01*
X12545753Y-10995573D01*
X12799753Y-10995573D02*
X12799753Y-10911427D01*
X12715607Y-10911427D01*
X12715607Y-10995573D01*
X12799753Y-10995573D01*
X13053753Y-10995573D02*
X13053753Y-10911427D01*
X12969607Y-10911427D01*
X12969607Y-10995573D01*
X13053753Y-10995573D01*
X13307753Y-10995573D02*
X13307753Y-10911427D01*
X13223607Y-10911427D01*
X13223607Y-10995573D01*
X13307753Y-10995573D01*
X19598073Y-6671473D02*
X19598073Y-6587327D01*
X19513927Y-6587327D01*
X19513927Y-6671473D01*
X19598073Y-6671473D01*
X19598073Y-6925473D02*
X19598073Y-6841327D01*
X19513927Y-6841327D01*
X19513927Y-6925473D01*
X19598073Y-6925473D01*
X19598073Y-7179473D02*
X19598073Y-7095327D01*
X19513927Y-7095327D01*
X19513927Y-7179473D01*
X19598073Y-7179473D01*
X19598073Y-7433473D02*
X19598073Y-7349327D01*
X19513927Y-7349327D01*
X19513927Y-7433473D01*
X19598073Y-7433473D01*
X19598073Y-7687473D02*
X19598073Y-7603327D01*
X19513927Y-7603327D01*
X19513927Y-7687473D01*
X19598073Y-7687473D01*
X19598073Y-7941473D02*
X19598073Y-7857327D01*
X19513927Y-7857327D01*
X19513927Y-7941473D01*
X19598073Y-7941473D01*
X19598073Y-8195473D02*
X19598073Y-8111327D01*
X19513927Y-8111327D01*
X19513927Y-8195473D01*
X19598073Y-8195473D01*
X19598073Y-8449473D02*
X19598073Y-8365327D01*
X19513927Y-8365327D01*
X19513927Y-8449473D01*
X19598073Y-8449473D01*
X19598073Y-8703473D02*
X19598073Y-8619327D01*
X19513927Y-8619327D01*
X19513927Y-8703473D01*
X19598073Y-8703473D01*
D15*
X11901800Y-4988000D02*
X11961800Y-4928000D01*
X11901800Y-4868000D01*
X11841800Y-4928000D01*
X11901800Y-4988000D01*
X11901800Y-5488000D02*
X11961800Y-5428000D01*
X11901800Y-5368000D01*
X11841800Y-5428000D01*
X11901800Y-5488000D01*
X12251800Y-4988000D02*
X12311800Y-4928000D01*
X12251800Y-4868000D01*
X12191800Y-4928000D01*
X12251800Y-4988000D01*
X12251800Y-5488000D02*
X12311800Y-5428000D01*
X12251800Y-5368000D01*
X12191800Y-5428000D01*
X12251800Y-5488000D01*
X12601800Y-4988000D02*
X12661800Y-4928000D01*
X12601800Y-4868000D01*
X12541800Y-4928000D01*
X12601800Y-4988000D01*
X12601800Y-5488000D02*
X12661800Y-5428000D01*
X12601800Y-5368000D01*
X12541800Y-5428000D01*
X12601800Y-5488000D01*
X12951800Y-4988000D02*
X13011800Y-4928000D01*
X12951800Y-4868000D01*
X12891800Y-4928000D01*
X12951800Y-4988000D01*
X12951800Y-5488000D02*
X13011800Y-5428000D01*
X12951800Y-5368000D01*
X12891800Y-5428000D01*
X12951800Y-5488000D01*
X13301800Y-4988000D02*
X13361800Y-4928000D01*
X13301800Y-4868000D01*
X13241800Y-4928000D01*
X13301800Y-4988000D01*
X13301800Y-5488000D02*
X13361800Y-5428000D01*
X13301800Y-5368000D01*
X13241800Y-5428000D01*
X13301800Y-5488000D01*
X13651800Y-4988000D02*
X13711800Y-4928000D01*
X13651800Y-4868000D01*
X13591800Y-4928000D01*
X13651800Y-4988000D01*
X13651800Y-5488000D02*
X13711800Y-5428000D01*
X13651800Y-5368000D01*
X13591800Y-5428000D01*
X13651800Y-5488000D01*
X16079200Y-4988000D02*
X16139200Y-4928000D01*
X16079200Y-4868000D01*
X16019200Y-4928000D01*
X16079200Y-4988000D01*
X16079200Y-5488000D02*
X16139200Y-5428000D01*
X16079200Y-5368000D01*
X16019200Y-5428000D01*
X16079200Y-5488000D01*
X16429200Y-4988000D02*
X16489200Y-4928000D01*
X16429200Y-4868000D01*
X16369200Y-4928000D01*
X16429200Y-4988000D01*
X16429200Y-5488000D02*
X16489200Y-5428000D01*
X16429200Y-5368000D01*
X16369200Y-5428000D01*
X16429200Y-5488000D01*
X16779200Y-4988000D02*
X16839200Y-4928000D01*
X16779200Y-4868000D01*
X16719200Y-4928000D01*
X16779200Y-4988000D01*
X16779200Y-5488000D02*
X16839200Y-5428000D01*
X16779200Y-5368000D01*
X16719200Y-5428000D01*
X16779200Y-5488000D01*
X17129200Y-4988000D02*
X17189200Y-4928000D01*
X17129200Y-4868000D01*
X17069200Y-4928000D01*
X17129200Y-4988000D01*
X17129200Y-5488000D02*
X17189200Y-5428000D01*
X17129200Y-5368000D01*
X17069200Y-5428000D01*
X17129200Y-5488000D01*
X17479200Y-4988000D02*
X17539200Y-4928000D01*
X17479200Y-4868000D01*
X17419200Y-4928000D01*
X17479200Y-4988000D01*
X17479200Y-5488000D02*
X17539200Y-5428000D01*
X17479200Y-5368000D01*
X17419200Y-5428000D01*
X17479200Y-5488000D01*
X17829200Y-4988000D02*
X17889200Y-4928000D01*
X17829200Y-4868000D01*
X17769200Y-4928000D01*
X17829200Y-4988000D01*
X17829200Y-5488000D02*
X17889200Y-5428000D01*
X17829200Y-5368000D01*
X17769200Y-5428000D01*
X17829200Y-5488000D01*
D16*
X10269200Y-10479300D02*
X10449200Y-10659300D01*
X10449200Y-10479300D02*
X10269200Y-10659300D01*
X10449200Y-10569300D02*
G75*
G03*
X10449200Y-10569300I-90000J0D01*
G01*
X10665200Y-10479300D02*
X10845200Y-10659300D01*
X10845200Y-10479300D02*
X10665200Y-10659300D01*
X10845200Y-10569300D02*
G75*
G03*
X10845200Y-10569300I-90000J0D01*
G01*
X11061200Y-10479300D02*
X11241200Y-10659300D01*
X11241200Y-10479300D02*
X11061200Y-10659300D01*
X11241200Y-10569300D02*
G75*
G03*
X11241200Y-10569300I-90000J0D01*
G01*
X11457200Y-10479300D02*
X11637200Y-10659300D01*
X11637200Y-10479300D02*
X11457200Y-10659300D01*
X11637200Y-10569300D02*
G75*
G03*
X11637200Y-10569300I-90000J0D01*
G01*
X11853200Y-10479300D02*
X12033200Y-10659300D01*
X12033200Y-10479300D02*
X11853200Y-10659300D01*
X12033200Y-10569300D02*
G75*
G03*
X12033200Y-10569300I-90000J0D01*
G01*
X12249200Y-10479300D02*
X12429200Y-10659300D01*
X12429200Y-10479300D02*
X12249200Y-10659300D01*
X12429200Y-10569300D02*
G75*
G03*
X12429200Y-10569300I-90000J0D01*
G01*
X12645200Y-10479300D02*
X12825200Y-10659300D01*
X12825200Y-10479300D02*
X12645200Y-10659300D01*
X12825200Y-10569300D02*
G75*
G03*
X12825200Y-10569300I-90000J0D01*
G01*
X13041200Y-10479300D02*
X13221200Y-10659300D01*
X13221200Y-10479300D02*
X13041200Y-10659300D01*
X13221200Y-10569300D02*
G75*
G03*
X13221200Y-10569300I-90000J0D01*
G01*
X13437200Y-10479300D02*
X13617200Y-10659300D01*
X13617200Y-10479300D02*
X13437200Y-10659300D01*
X13617200Y-10569300D02*
G75*
G03*
X13617200Y-10569300I-90000J0D01*
G01*
X13833200Y-10479300D02*
X14013200Y-10659300D01*
X14013200Y-10479300D02*
X13833200Y-10659300D01*
X14013200Y-10569300D02*
G75*
G03*
X14013200Y-10569300I-90000J0D01*
G01*
X15777000Y-10451000D02*
X15957000Y-10631000D01*
X15957000Y-10451000D02*
X15777000Y-10631000D01*
X15957000Y-10541000D02*
G75*
G03*
X15957000Y-10541000I-90000J0D01*
G01*
X16173000Y-10451000D02*
X16353000Y-10631000D01*
X16353000Y-10451000D02*
X16173000Y-10631000D01*
X16353000Y-10541000D02*
G75*
G03*
X16353000Y-10541000I-90000J0D01*
G01*
X16569000Y-10451000D02*
X16749000Y-10631000D01*
X16749000Y-10451000D02*
X16569000Y-10631000D01*
X16749000Y-10541000D02*
G75*
G03*
X16749000Y-10541000I-90000J0D01*
G01*
X16965000Y-10451000D02*
X17145000Y-10631000D01*
X17145000Y-10451000D02*
X16965000Y-10631000D01*
X17145000Y-10541000D02*
G75*
G03*
X17145000Y-10541000I-90000J0D01*
G01*
X17361000Y-10451000D02*
X17541000Y-10631000D01*
X17541000Y-10451000D02*
X17361000Y-10631000D01*
X17541000Y-10541000D02*
G75*
G03*
X17541000Y-10541000I-90000J0D01*
G01*
X17757000Y-10451000D02*
X17937000Y-10631000D01*
X17937000Y-10451000D02*
X17757000Y-10631000D01*
X17937000Y-10541000D02*
G75*
G03*
X17937000Y-10541000I-90000J0D01*
G01*
X18153000Y-10451000D02*
X18333000Y-10631000D01*
X18333000Y-10451000D02*
X18153000Y-10631000D01*
X18333000Y-10541000D02*
G75*
G03*
X18333000Y-10541000I-90000J0D01*
G01*
X18549000Y-10451000D02*
X18729000Y-10631000D01*
X18729000Y-10451000D02*
X18549000Y-10631000D01*
X18729000Y-10541000D02*
G75*
G03*
X18729000Y-10541000I-90000J0D01*
G01*
X18945000Y-10451000D02*
X19125000Y-10631000D01*
X19125000Y-10451000D02*
X18945000Y-10631000D01*
X19125000Y-10541000D02*
G75*
G03*
X19125000Y-10541000I-90000J0D01*
G01*
X18982500Y-5701200D02*
X19162500Y-5881200D01*
X19162500Y-5701200D02*
X18982500Y-5881200D01*
X19162500Y-5791200D02*
G75*
G03*
X19162500Y-5791200I-90000J0D01*
G01*
X18982500Y-6097200D02*
X19162500Y-6277200D01*
X19162500Y-6097200D02*
X18982500Y-6277200D01*
X19162500Y-6187200D02*
G75*
G03*
X19162500Y-6187200I-90000J0D01*
G01*
X18982500Y-6493200D02*
X19162500Y-6673200D01*
X19162500Y-6493200D02*
X18982500Y-6673200D01*
X19162500Y-6583200D02*
G75*
G03*
X19162500Y-6583200I-90000J0D01*
G01*
X18982500Y-6889200D02*
X19162500Y-7069200D01*
X19162500Y-6889200D02*
X18982500Y-7069200D01*
X19162500Y-6979200D02*
G75*
G03*
X19162500Y-6979200I-90000J0D01*
G01*
X18982500Y-7285200D02*
X19162500Y-7465200D01*
X19162500Y-7285200D02*
X18982500Y-7465200D01*
X19162500Y-7375200D02*
G75*
G03*
X19162500Y-7375200I-90000J0D01*
G01*
X18982500Y-7681200D02*
X19162500Y-7861200D01*
X19162500Y-7681200D02*
X18982500Y-7861200D01*
X19162500Y-7771200D02*
G75*
G03*
X19162500Y-7771200I-90000J0D01*
G01*
X18982500Y-8077200D02*
X19162500Y-8257200D01*
X19162500Y-8077200D02*
X18982500Y-8257200D01*
X19162500Y-8167200D02*
G75*
G03*
X19162500Y-8167200I-90000J0D01*
G01*
X18982500Y-8473200D02*
X19162500Y-8653200D01*
X19162500Y-8473200D02*
X18982500Y-8653200D01*
X19162500Y-8563200D02*
G75*
G03*
X19162500Y-8563200I-90000J0D01*
G01*
X18982500Y-8869200D02*
X19162500Y-9049200D01*
X19162500Y-8869200D02*
X18982500Y-9049200D01*
X19162500Y-8959200D02*
G75*
G03*
X19162500Y-8959200I-90000J0D01*
G01*
X19341000Y-10451000D02*
X19521000Y-10631000D01*
X19521000Y-10451000D02*
X19341000Y-10631000D01*
X19521000Y-10541000D02*
G75*
G03*
X19521000Y-10541000I-90000J0D01*
G01*
D11*
X10344019Y-11527036D02*
X10344019Y-11327036D01*
X10391638Y-11327036D01*
X10420210Y-11336560D01*
X10439257Y-11355608D01*
X10448781Y-11374655D01*
X10458305Y-11412750D01*
X10458305Y-11441322D01*
X10448781Y-11479417D01*
X10439257Y-11498465D01*
X10420210Y-11517512D01*
X10391638Y-11527036D01*
X10344019Y-11527036D01*
X10544019Y-11527036D02*
X10544019Y-11393703D01*
X10544019Y-11431798D02*
X10553543Y-11412750D01*
X10563067Y-11403227D01*
X10582114Y-11393703D01*
X10601162Y-11393703D01*
X10667829Y-11527036D02*
X10667829Y-11393703D01*
X10667829Y-11327036D02*
X10658305Y-11336560D01*
X10667829Y-11346084D01*
X10677352Y-11336560D01*
X10667829Y-11327036D01*
X10667829Y-11346084D01*
X10791638Y-11527036D02*
X10772590Y-11517512D01*
X10763067Y-11498465D01*
X10763067Y-11327036D01*
X10896400Y-11527036D02*
X10877352Y-11517512D01*
X10867829Y-11498465D01*
X10867829Y-11327036D01*
X11124971Y-11527036D02*
X11124971Y-11327036D01*
X11191638Y-11469893D01*
X11258305Y-11327036D01*
X11258305Y-11527036D01*
X11439257Y-11527036D02*
X11439257Y-11422274D01*
X11429733Y-11403227D01*
X11410686Y-11393703D01*
X11372590Y-11393703D01*
X11353543Y-11403227D01*
X11439257Y-11517512D02*
X11420209Y-11527036D01*
X11372590Y-11527036D01*
X11353543Y-11517512D01*
X11344019Y-11498465D01*
X11344019Y-11479417D01*
X11353543Y-11460369D01*
X11372590Y-11450846D01*
X11420209Y-11450846D01*
X11439257Y-11441322D01*
X11534495Y-11393703D02*
X11534495Y-11593703D01*
X11534495Y-11403227D02*
X11553543Y-11393703D01*
X11591638Y-11393703D01*
X11610686Y-11403227D01*
X11620209Y-11412750D01*
X11629733Y-11431798D01*
X11629733Y-11488941D01*
X11620209Y-11507988D01*
X11610686Y-11517512D01*
X11591638Y-11527036D01*
X11553543Y-11527036D01*
X11534495Y-11517512D01*
X11715448Y-11507988D02*
X11724971Y-11517512D01*
X11715448Y-11527036D01*
X11705924Y-11517512D01*
X11715448Y-11507988D01*
X11715448Y-11527036D01*
X11715448Y-11403227D02*
X11724971Y-11412750D01*
X11715448Y-11422274D01*
X11705924Y-11412750D01*
X11715448Y-11403227D01*
X11715448Y-11422274D01*
D12*
X10056400Y-11841560D02*
X10086400Y-11871560D01*
X10086400Y-11841560D02*
X10056400Y-11871560D01*
D11*
X10382114Y-11747036D02*
X10401162Y-11747036D01*
X10420210Y-11756560D01*
X10429733Y-11766084D01*
X10439257Y-11785131D01*
X10448781Y-11823227D01*
X10448781Y-11870846D01*
X10439257Y-11908941D01*
X10429733Y-11927988D01*
X10420210Y-11937512D01*
X10401162Y-11947036D01*
X10382114Y-11947036D01*
X10363067Y-11937512D01*
X10353543Y-11927988D01*
X10344019Y-11908941D01*
X10334495Y-11870846D01*
X10334495Y-11823227D01*
X10344019Y-11785131D01*
X10353543Y-11766084D01*
X10363067Y-11756560D01*
X10382114Y-11747036D01*
X10534495Y-11927988D02*
X10544019Y-11937512D01*
X10534495Y-11947036D01*
X10524971Y-11937512D01*
X10534495Y-11927988D01*
X10534495Y-11947036D01*
X10610686Y-11747036D02*
X10734495Y-11747036D01*
X10667829Y-11823227D01*
X10696400Y-11823227D01*
X10715448Y-11832750D01*
X10724971Y-11842274D01*
X10734495Y-11861322D01*
X10734495Y-11908941D01*
X10724971Y-11927988D01*
X10715448Y-11937512D01*
X10696400Y-11947036D01*
X10639257Y-11947036D01*
X10620210Y-11937512D01*
X10610686Y-11927988D01*
X10858305Y-11747036D02*
X10877352Y-11747036D01*
X10896400Y-11756560D01*
X10905924Y-11766084D01*
X10915448Y-11785131D01*
X10924971Y-11823227D01*
X10924971Y-11870846D01*
X10915448Y-11908941D01*
X10905924Y-11927988D01*
X10896400Y-11937512D01*
X10877352Y-11947036D01*
X10858305Y-11947036D01*
X10839257Y-11937512D01*
X10829733Y-11927988D01*
X10820210Y-11908941D01*
X10810686Y-11870846D01*
X10810686Y-11823227D01*
X10820210Y-11785131D01*
X10829733Y-11766084D01*
X10839257Y-11756560D01*
X10858305Y-11747036D01*
X11048781Y-11747036D02*
X11067829Y-11747036D01*
X11086876Y-11756560D01*
X11096400Y-11766084D01*
X11105924Y-11785131D01*
X11115448Y-11823227D01*
X11115448Y-11870846D01*
X11105924Y-11908941D01*
X11096400Y-11927988D01*
X11086876Y-11937512D01*
X11067829Y-11947036D01*
X11048781Y-11947036D01*
X11029733Y-11937512D01*
X11020210Y-11927988D01*
X11010686Y-11908941D01*
X11001162Y-11870846D01*
X11001162Y-11823227D01*
X11010686Y-11785131D01*
X11020210Y-11766084D01*
X11029733Y-11756560D01*
X11048781Y-11747036D01*
X11201162Y-11947036D02*
X11201162Y-11813703D01*
X11201162Y-11832750D02*
X11210686Y-11823227D01*
X11229733Y-11813703D01*
X11258305Y-11813703D01*
X11277352Y-11823227D01*
X11286876Y-11842274D01*
X11286876Y-11947036D01*
X11286876Y-11842274D02*
X11296400Y-11823227D01*
X11315448Y-11813703D01*
X11344019Y-11813703D01*
X11363067Y-11823227D01*
X11372590Y-11842274D01*
X11372590Y-11947036D01*
X11467828Y-11947036D02*
X11467828Y-11813703D01*
X11467828Y-11832750D02*
X11477352Y-11823227D01*
X11496400Y-11813703D01*
X11524971Y-11813703D01*
X11544019Y-11823227D01*
X11553543Y-11842274D01*
X11553543Y-11947036D01*
X11553543Y-11842274D02*
X11563067Y-11823227D01*
X11582114Y-11813703D01*
X11610686Y-11813703D01*
X11629733Y-11823227D01*
X11639257Y-11842274D01*
X11639257Y-11947036D01*
X12029733Y-11737512D02*
X11858305Y-11994655D01*
X12286876Y-11747036D02*
X12305924Y-11747036D01*
X12324971Y-11756560D01*
X12334495Y-11766084D01*
X12344019Y-11785131D01*
X12353543Y-11823227D01*
X12353543Y-11870846D01*
X12344019Y-11908941D01*
X12334495Y-11927988D01*
X12324971Y-11937512D01*
X12305924Y-11947036D01*
X12286876Y-11947036D01*
X12267828Y-11937512D01*
X12258305Y-11927988D01*
X12248781Y-11908941D01*
X12239257Y-11870846D01*
X12239257Y-11823227D01*
X12248781Y-11785131D01*
X12258305Y-11766084D01*
X12267828Y-11756560D01*
X12286876Y-11747036D01*
X12439257Y-11927988D02*
X12448781Y-11937512D01*
X12439257Y-11947036D01*
X12429733Y-11937512D01*
X12439257Y-11927988D01*
X12439257Y-11947036D01*
X12572590Y-11747036D02*
X12591638Y-11747036D01*
X12610686Y-11756560D01*
X12620209Y-11766084D01*
X12629733Y-11785131D01*
X12639257Y-11823227D01*
X12639257Y-11870846D01*
X12629733Y-11908941D01*
X12620209Y-11927988D01*
X12610686Y-11937512D01*
X12591638Y-11947036D01*
X12572590Y-11947036D01*
X12553543Y-11937512D01*
X12544019Y-11927988D01*
X12534495Y-11908941D01*
X12524971Y-11870846D01*
X12524971Y-11823227D01*
X12534495Y-11785131D01*
X12544019Y-11766084D01*
X12553543Y-11756560D01*
X12572590Y-11747036D01*
X12829733Y-11947036D02*
X12715448Y-11947036D01*
X12772590Y-11947036D02*
X12772590Y-11747036D01*
X12753543Y-11775608D01*
X12734495Y-11794655D01*
X12715448Y-11804179D01*
X13020209Y-11947036D02*
X12905924Y-11947036D01*
X12963067Y-11947036D02*
X12963067Y-11747036D01*
X12944019Y-11775608D01*
X12924971Y-11794655D01*
X12905924Y-11804179D01*
X13134495Y-11832750D02*
X13115448Y-11823227D01*
X13105924Y-11813703D01*
X13096400Y-11794655D01*
X13096400Y-11785131D01*
X13105924Y-11766084D01*
X13115448Y-11756560D01*
X13134495Y-11747036D01*
X13172590Y-11747036D01*
X13191638Y-11756560D01*
X13201162Y-11766084D01*
X13210686Y-11785131D01*
X13210686Y-11794655D01*
X13201162Y-11813703D01*
X13191638Y-11823227D01*
X13172590Y-11832750D01*
X13134495Y-11832750D01*
X13115448Y-11842274D01*
X13105924Y-11851798D01*
X13096400Y-11870846D01*
X13096400Y-11908941D01*
X13105924Y-11927988D01*
X13115448Y-11937512D01*
X13134495Y-11947036D01*
X13172590Y-11947036D01*
X13191638Y-11937512D01*
X13201162Y-11927988D01*
X13210686Y-11908941D01*
X13210686Y-11870846D01*
X13201162Y-11851798D01*
X13191638Y-11842274D01*
X13172590Y-11832750D01*
X13286876Y-11747036D02*
X13286876Y-11785131D01*
X13363067Y-11747036D02*
X13363067Y-11785131D01*
X13658305Y-12023227D02*
X13648781Y-12013703D01*
X13629733Y-11985131D01*
X13620209Y-11966084D01*
X13610686Y-11937512D01*
X13601162Y-11889893D01*
X13601162Y-11851798D01*
X13610686Y-11804179D01*
X13620209Y-11775608D01*
X13629733Y-11756560D01*
X13648781Y-11727988D01*
X13658305Y-11718465D01*
X13829733Y-11747036D02*
X13734495Y-11747036D01*
X13724971Y-11842274D01*
X13734495Y-11832750D01*
X13753543Y-11823227D01*
X13801162Y-11823227D01*
X13820209Y-11832750D01*
X13829733Y-11842274D01*
X13839257Y-11861322D01*
X13839257Y-11908941D01*
X13829733Y-11927988D01*
X13820209Y-11937512D01*
X13801162Y-11947036D01*
X13753543Y-11947036D01*
X13734495Y-11937512D01*
X13724971Y-11927988D01*
X13915448Y-11766084D02*
X13924971Y-11756560D01*
X13944019Y-11747036D01*
X13991638Y-11747036D01*
X14010686Y-11756560D01*
X14020209Y-11766084D01*
X14029733Y-11785131D01*
X14029733Y-11804179D01*
X14020209Y-11832750D01*
X13905924Y-11947036D01*
X14029733Y-11947036D01*
X14105924Y-11766084D02*
X14115448Y-11756560D01*
X14134495Y-11747036D01*
X14182114Y-11747036D01*
X14201162Y-11756560D01*
X14210686Y-11766084D01*
X14220209Y-11785131D01*
X14220209Y-11804179D01*
X14210686Y-11832750D01*
X14096400Y-11947036D01*
X14220209Y-11947036D01*
X14458305Y-11947036D02*
X14458305Y-11747036D01*
X14544019Y-11947036D02*
X14544019Y-11842274D01*
X14534495Y-11823227D01*
X14515448Y-11813703D01*
X14486876Y-11813703D01*
X14467828Y-11823227D01*
X14458305Y-11832750D01*
X14667828Y-11947036D02*
X14648781Y-11937512D01*
X14639257Y-11927988D01*
X14629733Y-11908941D01*
X14629733Y-11851798D01*
X14639257Y-11832750D01*
X14648781Y-11823227D01*
X14667828Y-11813703D01*
X14696400Y-11813703D01*
X14715448Y-11823227D01*
X14724971Y-11832750D01*
X14734495Y-11851798D01*
X14734495Y-11908941D01*
X14724971Y-11927988D01*
X14715448Y-11937512D01*
X14696400Y-11947036D01*
X14667828Y-11947036D01*
X14848781Y-11947036D02*
X14829733Y-11937512D01*
X14820209Y-11918465D01*
X14820209Y-11747036D01*
X15001162Y-11937512D02*
X14982114Y-11947036D01*
X14944019Y-11947036D01*
X14924971Y-11937512D01*
X14915448Y-11918465D01*
X14915448Y-11842274D01*
X14924971Y-11823227D01*
X14944019Y-11813703D01*
X14982114Y-11813703D01*
X15001162Y-11823227D01*
X15010686Y-11842274D01*
X15010686Y-11861322D01*
X14915448Y-11880369D01*
X15086876Y-11937512D02*
X15105924Y-11947036D01*
X15144019Y-11947036D01*
X15163067Y-11937512D01*
X15172590Y-11918465D01*
X15172590Y-11908941D01*
X15163067Y-11889893D01*
X15144019Y-11880369D01*
X15115448Y-11880369D01*
X15096400Y-11870846D01*
X15086876Y-11851798D01*
X15086876Y-11842274D01*
X15096400Y-11823227D01*
X15115448Y-11813703D01*
X15144019Y-11813703D01*
X15163067Y-11823227D01*
X15239257Y-12023227D02*
X15248781Y-12013703D01*
X15267828Y-11985131D01*
X15277352Y-11966084D01*
X15286876Y-11937512D01*
X15296400Y-11889893D01*
X15296400Y-11851798D01*
X15286876Y-11804179D01*
X15277352Y-11775608D01*
X15267828Y-11756560D01*
X15248781Y-11727988D01*
X15239257Y-11718465D01*
D13*
X10086400Y-12120560D02*
G75*
G03*
X10086400Y-12120560I-30000J0D01*
G01*
D11*
X10382114Y-12011036D02*
X10401162Y-12011036D01*
X10420210Y-12020560D01*
X10429733Y-12030084D01*
X10439257Y-12049131D01*
X10448781Y-12087227D01*
X10448781Y-12134846D01*
X10439257Y-12172941D01*
X10429733Y-12191988D01*
X10420210Y-12201512D01*
X10401162Y-12211036D01*
X10382114Y-12211036D01*
X10363067Y-12201512D01*
X10353543Y-12191988D01*
X10344019Y-12172941D01*
X10334495Y-12134846D01*
X10334495Y-12087227D01*
X10344019Y-12049131D01*
X10353543Y-12030084D01*
X10363067Y-12020560D01*
X10382114Y-12011036D01*
X10534495Y-12191988D02*
X10544019Y-12201512D01*
X10534495Y-12211036D01*
X10524971Y-12201512D01*
X10534495Y-12191988D01*
X10534495Y-12211036D01*
X10715448Y-12011036D02*
X10677352Y-12011036D01*
X10658305Y-12020560D01*
X10648781Y-12030084D01*
X10629733Y-12058655D01*
X10620210Y-12096750D01*
X10620210Y-12172941D01*
X10629733Y-12191988D01*
X10639257Y-12201512D01*
X10658305Y-12211036D01*
X10696400Y-12211036D01*
X10715448Y-12201512D01*
X10724971Y-12191988D01*
X10734495Y-12172941D01*
X10734495Y-12125322D01*
X10724971Y-12106274D01*
X10715448Y-12096750D01*
X10696400Y-12087227D01*
X10658305Y-12087227D01*
X10639257Y-12096750D01*
X10629733Y-12106274D01*
X10620210Y-12125322D01*
X10858305Y-12011036D02*
X10877352Y-12011036D01*
X10896400Y-12020560D01*
X10905924Y-12030084D01*
X10915448Y-12049131D01*
X10924971Y-12087227D01*
X10924971Y-12134846D01*
X10915448Y-12172941D01*
X10905924Y-12191988D01*
X10896400Y-12201512D01*
X10877352Y-12211036D01*
X10858305Y-12211036D01*
X10839257Y-12201512D01*
X10829733Y-12191988D01*
X10820210Y-12172941D01*
X10810686Y-12134846D01*
X10810686Y-12087227D01*
X10820210Y-12049131D01*
X10829733Y-12030084D01*
X10839257Y-12020560D01*
X10858305Y-12011036D01*
X11048781Y-12011036D02*
X11067829Y-12011036D01*
X11086876Y-12020560D01*
X11096400Y-12030084D01*
X11105924Y-12049131D01*
X11115448Y-12087227D01*
X11115448Y-12134846D01*
X11105924Y-12172941D01*
X11096400Y-12191988D01*
X11086876Y-12201512D01*
X11067829Y-12211036D01*
X11048781Y-12211036D01*
X11029733Y-12201512D01*
X11020210Y-12191988D01*
X11010686Y-12172941D01*
X11001162Y-12134846D01*
X11001162Y-12087227D01*
X11010686Y-12049131D01*
X11020210Y-12030084D01*
X11029733Y-12020560D01*
X11048781Y-12011036D01*
X11201162Y-12211036D02*
X11201162Y-12077703D01*
X11201162Y-12096750D02*
X11210686Y-12087227D01*
X11229733Y-12077703D01*
X11258305Y-12077703D01*
X11277352Y-12087227D01*
X11286876Y-12106274D01*
X11286876Y-12211036D01*
X11286876Y-12106274D02*
X11296400Y-12087227D01*
X11315448Y-12077703D01*
X11344019Y-12077703D01*
X11363067Y-12087227D01*
X11372590Y-12106274D01*
X11372590Y-12211036D01*
X11467828Y-12211036D02*
X11467828Y-12077703D01*
X11467828Y-12096750D02*
X11477352Y-12087227D01*
X11496400Y-12077703D01*
X11524971Y-12077703D01*
X11544019Y-12087227D01*
X11553543Y-12106274D01*
X11553543Y-12211036D01*
X11553543Y-12106274D02*
X11563067Y-12087227D01*
X11582114Y-12077703D01*
X11610686Y-12077703D01*
X11629733Y-12087227D01*
X11639257Y-12106274D01*
X11639257Y-12211036D01*
X12029733Y-12001512D02*
X11858305Y-12258655D01*
X12286876Y-12011036D02*
X12305924Y-12011036D01*
X12324971Y-12020560D01*
X12334495Y-12030084D01*
X12344019Y-12049131D01*
X12353543Y-12087227D01*
X12353543Y-12134846D01*
X12344019Y-12172941D01*
X12334495Y-12191988D01*
X12324971Y-12201512D01*
X12305924Y-12211036D01*
X12286876Y-12211036D01*
X12267828Y-12201512D01*
X12258305Y-12191988D01*
X12248781Y-12172941D01*
X12239257Y-12134846D01*
X12239257Y-12087227D01*
X12248781Y-12049131D01*
X12258305Y-12030084D01*
X12267828Y-12020560D01*
X12286876Y-12011036D01*
X12439257Y-12191988D02*
X12448781Y-12201512D01*
X12439257Y-12211036D01*
X12429733Y-12201512D01*
X12439257Y-12191988D01*
X12439257Y-12211036D01*
X12572590Y-12011036D02*
X12591638Y-12011036D01*
X12610686Y-12020560D01*
X12620209Y-12030084D01*
X12629733Y-12049131D01*
X12639257Y-12087227D01*
X12639257Y-12134846D01*
X12629733Y-12172941D01*
X12620209Y-12191988D01*
X12610686Y-12201512D01*
X12591638Y-12211036D01*
X12572590Y-12211036D01*
X12553543Y-12201512D01*
X12544019Y-12191988D01*
X12534495Y-12172941D01*
X12524971Y-12134846D01*
X12524971Y-12087227D01*
X12534495Y-12049131D01*
X12544019Y-12030084D01*
X12553543Y-12020560D01*
X12572590Y-12011036D01*
X12715448Y-12030084D02*
X12724971Y-12020560D01*
X12744019Y-12011036D01*
X12791638Y-12011036D01*
X12810686Y-12020560D01*
X12820209Y-12030084D01*
X12829733Y-12049131D01*
X12829733Y-12068179D01*
X12820209Y-12096750D01*
X12705924Y-12211036D01*
X12829733Y-12211036D01*
X12896400Y-12011036D02*
X13020209Y-12011036D01*
X12953543Y-12087227D01*
X12982114Y-12087227D01*
X13001162Y-12096750D01*
X13010686Y-12106274D01*
X13020209Y-12125322D01*
X13020209Y-12172941D01*
X13010686Y-12191988D01*
X13001162Y-12201512D01*
X12982114Y-12211036D01*
X12924971Y-12211036D01*
X12905924Y-12201512D01*
X12896400Y-12191988D01*
X13191638Y-12011036D02*
X13153543Y-12011036D01*
X13134495Y-12020560D01*
X13124971Y-12030084D01*
X13105924Y-12058655D01*
X13096400Y-12096750D01*
X13096400Y-12172941D01*
X13105924Y-12191988D01*
X13115448Y-12201512D01*
X13134495Y-12211036D01*
X13172590Y-12211036D01*
X13191638Y-12201512D01*
X13201162Y-12191988D01*
X13210686Y-12172941D01*
X13210686Y-12125322D01*
X13201162Y-12106274D01*
X13191638Y-12096750D01*
X13172590Y-12087227D01*
X13134495Y-12087227D01*
X13115448Y-12096750D01*
X13105924Y-12106274D01*
X13096400Y-12125322D01*
X13286876Y-12011036D02*
X13286876Y-12049131D01*
X13363067Y-12011036D02*
X13363067Y-12049131D01*
X13658305Y-12287227D02*
X13648781Y-12277703D01*
X13629733Y-12249131D01*
X13620209Y-12230084D01*
X13610686Y-12201512D01*
X13601162Y-12153893D01*
X13601162Y-12115798D01*
X13610686Y-12068179D01*
X13620209Y-12039608D01*
X13629733Y-12020560D01*
X13648781Y-11991988D01*
X13658305Y-11982465D01*
X13772590Y-12011036D02*
X13791638Y-12011036D01*
X13810686Y-12020560D01*
X13820209Y-12030084D01*
X13829733Y-12049131D01*
X13839257Y-12087227D01*
X13839257Y-12134846D01*
X13829733Y-12172941D01*
X13820209Y-12191988D01*
X13810686Y-12201512D01*
X13791638Y-12211036D01*
X13772590Y-12211036D01*
X13753543Y-12201512D01*
X13744019Y-12191988D01*
X13734495Y-12172941D01*
X13724971Y-12134846D01*
X13724971Y-12087227D01*
X13734495Y-12049131D01*
X13744019Y-12030084D01*
X13753543Y-12020560D01*
X13772590Y-12011036D01*
X14077352Y-12211036D02*
X14077352Y-12011036D01*
X14163067Y-12211036D02*
X14163067Y-12106274D01*
X14153543Y-12087227D01*
X14134495Y-12077703D01*
X14105924Y-12077703D01*
X14086876Y-12087227D01*
X14077352Y-12096750D01*
X14286876Y-12211036D02*
X14267828Y-12201512D01*
X14258305Y-12191988D01*
X14248781Y-12172941D01*
X14248781Y-12115798D01*
X14258305Y-12096750D01*
X14267828Y-12087227D01*
X14286876Y-12077703D01*
X14315448Y-12077703D01*
X14334495Y-12087227D01*
X14344019Y-12096750D01*
X14353543Y-12115798D01*
X14353543Y-12172941D01*
X14344019Y-12191988D01*
X14334495Y-12201512D01*
X14315448Y-12211036D01*
X14286876Y-12211036D01*
X14467828Y-12211036D02*
X14448781Y-12201512D01*
X14439257Y-12182465D01*
X14439257Y-12011036D01*
X14620209Y-12201512D02*
X14601162Y-12211036D01*
X14563067Y-12211036D01*
X14544019Y-12201512D01*
X14534495Y-12182465D01*
X14534495Y-12106274D01*
X14544019Y-12087227D01*
X14563067Y-12077703D01*
X14601162Y-12077703D01*
X14620209Y-12087227D01*
X14629733Y-12106274D01*
X14629733Y-12125322D01*
X14534495Y-12144369D01*
X14705924Y-12201512D02*
X14724971Y-12211036D01*
X14763067Y-12211036D01*
X14782114Y-12201512D01*
X14791638Y-12182465D01*
X14791638Y-12172941D01*
X14782114Y-12153893D01*
X14763067Y-12144369D01*
X14734495Y-12144369D01*
X14715448Y-12134846D01*
X14705924Y-12115798D01*
X14705924Y-12106274D01*
X14715448Y-12087227D01*
X14734495Y-12077703D01*
X14763067Y-12077703D01*
X14782114Y-12087227D01*
X15029733Y-12134846D02*
X15182114Y-12134846D01*
X15105924Y-12211036D02*
X15105924Y-12058655D01*
X15515448Y-12077703D02*
X15515448Y-12211036D01*
X15467828Y-12001512D02*
X15420209Y-12144369D01*
X15544019Y-12144369D01*
X15763067Y-12201512D02*
X15782114Y-12211036D01*
X15820209Y-12211036D01*
X15839257Y-12201512D01*
X15848781Y-12182465D01*
X15848781Y-12172941D01*
X15839257Y-12153893D01*
X15820209Y-12144369D01*
X15791638Y-12144369D01*
X15772590Y-12134846D01*
X15763067Y-12115798D01*
X15763067Y-12106274D01*
X15772590Y-12087227D01*
X15791638Y-12077703D01*
X15820209Y-12077703D01*
X15839257Y-12087227D01*
X15963067Y-12211036D02*
X15944019Y-12201512D01*
X15934495Y-12182465D01*
X15934495Y-12011036D01*
X16067828Y-12211036D02*
X16048781Y-12201512D01*
X16039257Y-12191988D01*
X16029733Y-12172941D01*
X16029733Y-12115798D01*
X16039257Y-12096750D01*
X16048781Y-12087227D01*
X16067828Y-12077703D01*
X16096400Y-12077703D01*
X16115448Y-12087227D01*
X16124971Y-12096750D01*
X16134495Y-12115798D01*
X16134495Y-12172941D01*
X16124971Y-12191988D01*
X16115448Y-12201512D01*
X16096400Y-12211036D01*
X16067828Y-12211036D01*
X16191638Y-12077703D02*
X16267828Y-12077703D01*
X16220209Y-12011036D02*
X16220209Y-12182465D01*
X16229733Y-12201512D01*
X16248781Y-12211036D01*
X16267828Y-12211036D01*
X16324971Y-12201512D02*
X16344019Y-12211036D01*
X16382114Y-12211036D01*
X16401162Y-12201512D01*
X16410686Y-12182465D01*
X16410686Y-12172941D01*
X16401162Y-12153893D01*
X16382114Y-12144369D01*
X16353543Y-12144369D01*
X16334495Y-12134846D01*
X16324971Y-12115798D01*
X16324971Y-12106274D01*
X16334495Y-12087227D01*
X16353543Y-12077703D01*
X16382114Y-12077703D01*
X16401162Y-12087227D01*
X16477352Y-12287227D02*
X16486876Y-12277703D01*
X16505924Y-12249131D01*
X16515448Y-12230084D01*
X16524971Y-12201512D01*
X16534495Y-12153893D01*
X16534495Y-12115798D01*
X16524971Y-12068179D01*
X16515448Y-12039608D01*
X16505924Y-12020560D01*
X16486876Y-11991988D01*
X16477352Y-11982465D01*
D10*
X10036400Y-12334560D02*
X10036400Y-12434560D01*
X9986400Y-12384560D02*
X10086400Y-12384560D01*
D11*
X10448781Y-12475036D02*
X10334495Y-12475036D01*
X10391638Y-12475036D02*
X10391638Y-12275036D01*
X10372590Y-12303608D01*
X10353543Y-12322655D01*
X10334495Y-12332179D01*
X10534495Y-12455988D02*
X10544019Y-12465512D01*
X10534495Y-12475036D01*
X10524971Y-12465512D01*
X10534495Y-12455988D01*
X10534495Y-12475036D01*
X10667829Y-12275036D02*
X10686876Y-12275036D01*
X10705924Y-12284560D01*
X10715448Y-12294084D01*
X10724971Y-12313131D01*
X10734495Y-12351227D01*
X10734495Y-12398846D01*
X10724971Y-12436941D01*
X10715448Y-12455988D01*
X10705924Y-12465512D01*
X10686876Y-12475036D01*
X10667829Y-12475036D01*
X10648781Y-12465512D01*
X10639257Y-12455988D01*
X10629733Y-12436941D01*
X10620210Y-12398846D01*
X10620210Y-12351227D01*
X10629733Y-12313131D01*
X10639257Y-12294084D01*
X10648781Y-12284560D01*
X10667829Y-12275036D01*
X10858305Y-12275036D02*
X10877352Y-12275036D01*
X10896400Y-12284560D01*
X10905924Y-12294084D01*
X10915448Y-12313131D01*
X10924971Y-12351227D01*
X10924971Y-12398846D01*
X10915448Y-12436941D01*
X10905924Y-12455988D01*
X10896400Y-12465512D01*
X10877352Y-12475036D01*
X10858305Y-12475036D01*
X10839257Y-12465512D01*
X10829733Y-12455988D01*
X10820210Y-12436941D01*
X10810686Y-12398846D01*
X10810686Y-12351227D01*
X10820210Y-12313131D01*
X10829733Y-12294084D01*
X10839257Y-12284560D01*
X10858305Y-12275036D01*
X11048781Y-12275036D02*
X11067829Y-12275036D01*
X11086876Y-12284560D01*
X11096400Y-12294084D01*
X11105924Y-12313131D01*
X11115448Y-12351227D01*
X11115448Y-12398846D01*
X11105924Y-12436941D01*
X11096400Y-12455988D01*
X11086876Y-12465512D01*
X11067829Y-12475036D01*
X11048781Y-12475036D01*
X11029733Y-12465512D01*
X11020210Y-12455988D01*
X11010686Y-12436941D01*
X11001162Y-12398846D01*
X11001162Y-12351227D01*
X11010686Y-12313131D01*
X11020210Y-12294084D01*
X11029733Y-12284560D01*
X11048781Y-12275036D01*
X11201162Y-12475036D02*
X11201162Y-12341703D01*
X11201162Y-12360750D02*
X11210686Y-12351227D01*
X11229733Y-12341703D01*
X11258305Y-12341703D01*
X11277352Y-12351227D01*
X11286876Y-12370274D01*
X11286876Y-12475036D01*
X11286876Y-12370274D02*
X11296400Y-12351227D01*
X11315448Y-12341703D01*
X11344019Y-12341703D01*
X11363067Y-12351227D01*
X11372590Y-12370274D01*
X11372590Y-12475036D01*
X11467828Y-12475036D02*
X11467828Y-12341703D01*
X11467828Y-12360750D02*
X11477352Y-12351227D01*
X11496400Y-12341703D01*
X11524971Y-12341703D01*
X11544019Y-12351227D01*
X11553543Y-12370274D01*
X11553543Y-12475036D01*
X11553543Y-12370274D02*
X11563067Y-12351227D01*
X11582114Y-12341703D01*
X11610686Y-12341703D01*
X11629733Y-12351227D01*
X11639257Y-12370274D01*
X11639257Y-12475036D01*
X12029733Y-12265512D02*
X11858305Y-12522655D01*
X12286876Y-12275036D02*
X12305924Y-12275036D01*
X12324971Y-12284560D01*
X12334495Y-12294084D01*
X12344019Y-12313131D01*
X12353543Y-12351227D01*
X12353543Y-12398846D01*
X12344019Y-12436941D01*
X12334495Y-12455988D01*
X12324971Y-12465512D01*
X12305924Y-12475036D01*
X12286876Y-12475036D01*
X12267828Y-12465512D01*
X12258305Y-12455988D01*
X12248781Y-12436941D01*
X12239257Y-12398846D01*
X12239257Y-12351227D01*
X12248781Y-12313131D01*
X12258305Y-12294084D01*
X12267828Y-12284560D01*
X12286876Y-12275036D01*
X12439257Y-12455988D02*
X12448781Y-12465512D01*
X12439257Y-12475036D01*
X12429733Y-12465512D01*
X12439257Y-12455988D01*
X12439257Y-12475036D01*
X12572590Y-12275036D02*
X12591638Y-12275036D01*
X12610686Y-12284560D01*
X12620209Y-12294084D01*
X12629733Y-12313131D01*
X12639257Y-12351227D01*
X12639257Y-12398846D01*
X12629733Y-12436941D01*
X12620209Y-12455988D01*
X12610686Y-12465512D01*
X12591638Y-12475036D01*
X12572590Y-12475036D01*
X12553543Y-12465512D01*
X12544019Y-12455988D01*
X12534495Y-12436941D01*
X12524971Y-12398846D01*
X12524971Y-12351227D01*
X12534495Y-12313131D01*
X12544019Y-12294084D01*
X12553543Y-12284560D01*
X12572590Y-12275036D01*
X12705924Y-12275036D02*
X12829733Y-12275036D01*
X12763067Y-12351227D01*
X12791638Y-12351227D01*
X12810686Y-12360750D01*
X12820209Y-12370274D01*
X12829733Y-12389322D01*
X12829733Y-12436941D01*
X12820209Y-12455988D01*
X12810686Y-12465512D01*
X12791638Y-12475036D01*
X12734495Y-12475036D01*
X12715448Y-12465512D01*
X12705924Y-12455988D01*
X12924971Y-12475036D02*
X12963067Y-12475036D01*
X12982114Y-12465512D01*
X12991638Y-12455988D01*
X13010686Y-12427417D01*
X13020209Y-12389322D01*
X13020209Y-12313131D01*
X13010686Y-12294084D01*
X13001162Y-12284560D01*
X12982114Y-12275036D01*
X12944019Y-12275036D01*
X12924971Y-12284560D01*
X12915448Y-12294084D01*
X12905924Y-12313131D01*
X12905924Y-12360750D01*
X12915448Y-12379798D01*
X12924971Y-12389322D01*
X12944019Y-12398846D01*
X12982114Y-12398846D01*
X13001162Y-12389322D01*
X13010686Y-12379798D01*
X13020209Y-12360750D01*
X13191638Y-12341703D02*
X13191638Y-12475036D01*
X13144019Y-12265512D02*
X13096400Y-12408369D01*
X13220209Y-12408369D01*
X13286876Y-12275036D02*
X13286876Y-12313131D01*
X13363067Y-12275036D02*
X13363067Y-12313131D01*
X13658305Y-12551227D02*
X13648781Y-12541703D01*
X13629733Y-12513131D01*
X13620209Y-12494084D01*
X13610686Y-12465512D01*
X13601162Y-12417893D01*
X13601162Y-12379798D01*
X13610686Y-12332179D01*
X13620209Y-12303608D01*
X13629733Y-12284560D01*
X13648781Y-12255988D01*
X13658305Y-12246465D01*
X13829733Y-12275036D02*
X13734495Y-12275036D01*
X13724971Y-12370274D01*
X13734495Y-12360750D01*
X13753543Y-12351227D01*
X13801162Y-12351227D01*
X13820209Y-12360750D01*
X13829733Y-12370274D01*
X13839257Y-12389322D01*
X13839257Y-12436941D01*
X13829733Y-12455988D01*
X13820209Y-12465512D01*
X13801162Y-12475036D01*
X13753543Y-12475036D01*
X13734495Y-12465512D01*
X13724971Y-12455988D01*
X14077352Y-12475036D02*
X14077352Y-12275036D01*
X14163067Y-12475036D02*
X14163067Y-12370274D01*
X14153543Y-12351227D01*
X14134495Y-12341703D01*
X14105924Y-12341703D01*
X14086876Y-12351227D01*
X14077352Y-12360750D01*
X14286876Y-12475036D02*
X14267828Y-12465512D01*
X14258305Y-12455988D01*
X14248781Y-12436941D01*
X14248781Y-12379798D01*
X14258305Y-12360750D01*
X14267828Y-12351227D01*
X14286876Y-12341703D01*
X14315448Y-12341703D01*
X14334495Y-12351227D01*
X14344019Y-12360750D01*
X14353543Y-12379798D01*
X14353543Y-12436941D01*
X14344019Y-12455988D01*
X14334495Y-12465512D01*
X14315448Y-12475036D01*
X14286876Y-12475036D01*
X14467828Y-12475036D02*
X14448781Y-12465512D01*
X14439257Y-12446465D01*
X14439257Y-12275036D01*
X14620209Y-12465512D02*
X14601162Y-12475036D01*
X14563067Y-12475036D01*
X14544019Y-12465512D01*
X14534495Y-12446465D01*
X14534495Y-12370274D01*
X14544019Y-12351227D01*
X14563067Y-12341703D01*
X14601162Y-12341703D01*
X14620209Y-12351227D01*
X14629733Y-12370274D01*
X14629733Y-12389322D01*
X14534495Y-12408369D01*
X14705924Y-12465512D02*
X14724971Y-12475036D01*
X14763067Y-12475036D01*
X14782114Y-12465512D01*
X14791638Y-12446465D01*
X14791638Y-12436941D01*
X14782114Y-12417893D01*
X14763067Y-12408369D01*
X14734495Y-12408369D01*
X14715448Y-12398846D01*
X14705924Y-12379798D01*
X14705924Y-12370274D01*
X14715448Y-12351227D01*
X14734495Y-12341703D01*
X14763067Y-12341703D01*
X14782114Y-12351227D01*
X14858305Y-12551227D02*
X14867828Y-12541703D01*
X14886876Y-12513131D01*
X14896400Y-12494084D01*
X14905924Y-12465512D01*
X14915448Y-12417893D01*
X14915448Y-12379798D01*
X14905924Y-12332179D01*
X14896400Y-12303608D01*
X14886876Y-12284560D01*
X14867828Y-12255988D01*
X14858305Y-12246465D01*
D14*
X10068973Y-12690633D02*
X10068973Y-12606487D01*
X9984827Y-12606487D01*
X9984827Y-12690633D01*
X10068973Y-12690633D01*
D11*
X10448781Y-12739036D02*
X10334495Y-12739036D01*
X10391638Y-12739036D02*
X10391638Y-12539036D01*
X10372590Y-12567608D01*
X10353543Y-12586655D01*
X10334495Y-12596179D01*
X10534495Y-12719988D02*
X10544019Y-12729512D01*
X10534495Y-12739036D01*
X10524971Y-12729512D01*
X10534495Y-12719988D01*
X10534495Y-12739036D01*
X10734495Y-12739036D02*
X10620210Y-12739036D01*
X10677352Y-12739036D02*
X10677352Y-12539036D01*
X10658305Y-12567608D01*
X10639257Y-12586655D01*
X10620210Y-12596179D01*
X10829733Y-12739036D02*
X10867829Y-12739036D01*
X10886876Y-12729512D01*
X10896400Y-12719988D01*
X10915448Y-12691417D01*
X10924971Y-12653322D01*
X10924971Y-12577131D01*
X10915448Y-12558084D01*
X10905924Y-12548560D01*
X10886876Y-12539036D01*
X10848781Y-12539036D01*
X10829733Y-12548560D01*
X10820210Y-12558084D01*
X10810686Y-12577131D01*
X10810686Y-12624750D01*
X10820210Y-12643798D01*
X10829733Y-12653322D01*
X10848781Y-12662846D01*
X10886876Y-12662846D01*
X10905924Y-12653322D01*
X10915448Y-12643798D01*
X10924971Y-12624750D01*
X11048781Y-12539036D02*
X11067829Y-12539036D01*
X11086876Y-12548560D01*
X11096400Y-12558084D01*
X11105924Y-12577131D01*
X11115448Y-12615227D01*
X11115448Y-12662846D01*
X11105924Y-12700941D01*
X11096400Y-12719988D01*
X11086876Y-12729512D01*
X11067829Y-12739036D01*
X11048781Y-12739036D01*
X11029733Y-12729512D01*
X11020210Y-12719988D01*
X11010686Y-12700941D01*
X11001162Y-12662846D01*
X11001162Y-12615227D01*
X11010686Y-12577131D01*
X11020210Y-12558084D01*
X11029733Y-12548560D01*
X11048781Y-12539036D01*
X11201162Y-12739036D02*
X11201162Y-12605703D01*
X11201162Y-12624750D02*
X11210686Y-12615227D01*
X11229733Y-12605703D01*
X11258305Y-12605703D01*
X11277352Y-12615227D01*
X11286876Y-12634274D01*
X11286876Y-12739036D01*
X11286876Y-12634274D02*
X11296400Y-12615227D01*
X11315448Y-12605703D01*
X11344019Y-12605703D01*
X11363067Y-12615227D01*
X11372590Y-12634274D01*
X11372590Y-12739036D01*
X11467828Y-12739036D02*
X11467828Y-12605703D01*
X11467828Y-12624750D02*
X11477352Y-12615227D01*
X11496400Y-12605703D01*
X11524971Y-12605703D01*
X11544019Y-12615227D01*
X11553543Y-12634274D01*
X11553543Y-12739036D01*
X11553543Y-12634274D02*
X11563067Y-12615227D01*
X11582114Y-12605703D01*
X11610686Y-12605703D01*
X11629733Y-12615227D01*
X11639257Y-12634274D01*
X11639257Y-12739036D01*
X12029733Y-12529512D02*
X11858305Y-12786655D01*
X12286876Y-12539036D02*
X12305924Y-12539036D01*
X12324971Y-12548560D01*
X12334495Y-12558084D01*
X12344019Y-12577131D01*
X12353543Y-12615227D01*
X12353543Y-12662846D01*
X12344019Y-12700941D01*
X12334495Y-12719988D01*
X12324971Y-12729512D01*
X12305924Y-12739036D01*
X12286876Y-12739036D01*
X12267828Y-12729512D01*
X12258305Y-12719988D01*
X12248781Y-12700941D01*
X12239257Y-12662846D01*
X12239257Y-12615227D01*
X12248781Y-12577131D01*
X12258305Y-12558084D01*
X12267828Y-12548560D01*
X12286876Y-12539036D01*
X12439257Y-12719988D02*
X12448781Y-12729512D01*
X12439257Y-12739036D01*
X12429733Y-12729512D01*
X12439257Y-12719988D01*
X12439257Y-12739036D01*
X12572590Y-12539036D02*
X12591638Y-12539036D01*
X12610686Y-12548560D01*
X12620209Y-12558084D01*
X12629733Y-12577131D01*
X12639257Y-12615227D01*
X12639257Y-12662846D01*
X12629733Y-12700941D01*
X12620209Y-12719988D01*
X12610686Y-12729512D01*
X12591638Y-12739036D01*
X12572590Y-12739036D01*
X12553543Y-12729512D01*
X12544019Y-12719988D01*
X12534495Y-12700941D01*
X12524971Y-12662846D01*
X12524971Y-12615227D01*
X12534495Y-12577131D01*
X12544019Y-12558084D01*
X12553543Y-12548560D01*
X12572590Y-12539036D01*
X12810686Y-12605703D02*
X12810686Y-12739036D01*
X12763067Y-12529512D02*
X12715448Y-12672369D01*
X12839257Y-12672369D01*
X13001162Y-12539036D02*
X12963067Y-12539036D01*
X12944019Y-12548560D01*
X12934495Y-12558084D01*
X12915448Y-12586655D01*
X12905924Y-12624750D01*
X12905924Y-12700941D01*
X12915448Y-12719988D01*
X12924971Y-12729512D01*
X12944019Y-12739036D01*
X12982114Y-12739036D01*
X13001162Y-12729512D01*
X13010686Y-12719988D01*
X13020209Y-12700941D01*
X13020209Y-12653322D01*
X13010686Y-12634274D01*
X13001162Y-12624750D01*
X12982114Y-12615227D01*
X12944019Y-12615227D01*
X12924971Y-12624750D01*
X12915448Y-12634274D01*
X12905924Y-12653322D01*
X13115448Y-12739036D02*
X13153543Y-12739036D01*
X13172590Y-12729512D01*
X13182114Y-12719988D01*
X13201162Y-12691417D01*
X13210686Y-12653322D01*
X13210686Y-12577131D01*
X13201162Y-12558084D01*
X13191638Y-12548560D01*
X13172590Y-12539036D01*
X13134495Y-12539036D01*
X13115448Y-12548560D01*
X13105924Y-12558084D01*
X13096400Y-12577131D01*
X13096400Y-12624750D01*
X13105924Y-12643798D01*
X13115448Y-12653322D01*
X13134495Y-12662846D01*
X13172590Y-12662846D01*
X13191638Y-12653322D01*
X13201162Y-12643798D01*
X13210686Y-12624750D01*
X13286876Y-12539036D02*
X13286876Y-12577131D01*
X13363067Y-12539036D02*
X13363067Y-12577131D01*
X13658305Y-12815227D02*
X13648781Y-12805703D01*
X13629733Y-12777131D01*
X13620209Y-12758084D01*
X13610686Y-12729512D01*
X13601162Y-12681893D01*
X13601162Y-12643798D01*
X13610686Y-12596179D01*
X13620209Y-12567608D01*
X13629733Y-12548560D01*
X13648781Y-12519988D01*
X13658305Y-12510465D01*
X13839257Y-12739036D02*
X13724971Y-12739036D01*
X13782114Y-12739036D02*
X13782114Y-12539036D01*
X13763067Y-12567608D01*
X13744019Y-12586655D01*
X13724971Y-12596179D01*
X13953543Y-12624750D02*
X13934495Y-12615227D01*
X13924971Y-12605703D01*
X13915448Y-12586655D01*
X13915448Y-12577131D01*
X13924971Y-12558084D01*
X13934495Y-12548560D01*
X13953543Y-12539036D01*
X13991638Y-12539036D01*
X14010686Y-12548560D01*
X14020209Y-12558084D01*
X14029733Y-12577131D01*
X14029733Y-12586655D01*
X14020209Y-12605703D01*
X14010686Y-12615227D01*
X13991638Y-12624750D01*
X13953543Y-12624750D01*
X13934495Y-12634274D01*
X13924971Y-12643798D01*
X13915448Y-12662846D01*
X13915448Y-12700941D01*
X13924971Y-12719988D01*
X13934495Y-12729512D01*
X13953543Y-12739036D01*
X13991638Y-12739036D01*
X14010686Y-12729512D01*
X14020209Y-12719988D01*
X14029733Y-12700941D01*
X14029733Y-12662846D01*
X14020209Y-12643798D01*
X14010686Y-12634274D01*
X13991638Y-12624750D01*
X14267828Y-12739036D02*
X14267828Y-12539036D01*
X14353543Y-12739036D02*
X14353543Y-12634274D01*
X14344019Y-12615227D01*
X14324971Y-12605703D01*
X14296400Y-12605703D01*
X14277352Y-12615227D01*
X14267828Y-12624750D01*
X14477352Y-12739036D02*
X14458305Y-12729512D01*
X14448781Y-12719988D01*
X14439257Y-12700941D01*
X14439257Y-12643798D01*
X14448781Y-12624750D01*
X14458305Y-12615227D01*
X14477352Y-12605703D01*
X14505924Y-12605703D01*
X14524971Y-12615227D01*
X14534495Y-12624750D01*
X14544019Y-12643798D01*
X14544019Y-12700941D01*
X14534495Y-12719988D01*
X14524971Y-12729512D01*
X14505924Y-12739036D01*
X14477352Y-12739036D01*
X14658305Y-12739036D02*
X14639257Y-12729512D01*
X14629733Y-12710465D01*
X14629733Y-12539036D01*
X14810686Y-12729512D02*
X14791638Y-12739036D01*
X14753543Y-12739036D01*
X14734495Y-12729512D01*
X14724971Y-12710465D01*
X14724971Y-12634274D01*
X14734495Y-12615227D01*
X14753543Y-12605703D01*
X14791638Y-12605703D01*
X14810686Y-12615227D01*
X14820209Y-12634274D01*
X14820209Y-12653322D01*
X14724971Y-12672369D01*
X14896400Y-12729512D02*
X14915448Y-12739036D01*
X14953543Y-12739036D01*
X14972590Y-12729512D01*
X14982114Y-12710465D01*
X14982114Y-12700941D01*
X14972590Y-12681893D01*
X14953543Y-12672369D01*
X14924971Y-12672369D01*
X14905924Y-12662846D01*
X14896400Y-12643798D01*
X14896400Y-12634274D01*
X14905924Y-12615227D01*
X14924971Y-12605703D01*
X14953543Y-12605703D01*
X14972590Y-12615227D01*
X15048781Y-12815227D02*
X15058305Y-12805703D01*
X15077352Y-12777131D01*
X15086876Y-12758084D01*
X15096400Y-12729512D01*
X15105924Y-12681893D01*
X15105924Y-12643798D01*
X15096400Y-12596179D01*
X15086876Y-12567608D01*
X15077352Y-12548560D01*
X15058305Y-12519988D01*
X15048781Y-12510465D01*
D15*
X10026400Y-12972560D02*
X10086400Y-12912560D01*
X10026400Y-12852560D01*
X9966400Y-12912560D01*
X10026400Y-12972560D01*
D11*
X10448781Y-13003036D02*
X10334495Y-13003036D01*
X10391638Y-13003036D02*
X10391638Y-12803036D01*
X10372590Y-12831608D01*
X10353543Y-12850655D01*
X10334495Y-12860179D01*
X10534495Y-12983988D02*
X10544019Y-12993512D01*
X10534495Y-13003036D01*
X10524971Y-12993512D01*
X10534495Y-12983988D01*
X10534495Y-13003036D01*
X10620210Y-12822084D02*
X10629733Y-12812560D01*
X10648781Y-12803036D01*
X10696400Y-12803036D01*
X10715448Y-12812560D01*
X10724971Y-12822084D01*
X10734495Y-12841131D01*
X10734495Y-12860179D01*
X10724971Y-12888750D01*
X10610686Y-13003036D01*
X10734495Y-13003036D01*
X10858305Y-12803036D02*
X10877352Y-12803036D01*
X10896400Y-12812560D01*
X10905924Y-12822084D01*
X10915448Y-12841131D01*
X10924971Y-12879227D01*
X10924971Y-12926846D01*
X10915448Y-12964941D01*
X10905924Y-12983988D01*
X10896400Y-12993512D01*
X10877352Y-13003036D01*
X10858305Y-13003036D01*
X10839257Y-12993512D01*
X10829733Y-12983988D01*
X10820210Y-12964941D01*
X10810686Y-12926846D01*
X10810686Y-12879227D01*
X10820210Y-12841131D01*
X10829733Y-12822084D01*
X10839257Y-12812560D01*
X10858305Y-12803036D01*
X11048781Y-12803036D02*
X11067829Y-12803036D01*
X11086876Y-12812560D01*
X11096400Y-12822084D01*
X11105924Y-12841131D01*
X11115448Y-12879227D01*
X11115448Y-12926846D01*
X11105924Y-12964941D01*
X11096400Y-12983988D01*
X11086876Y-12993512D01*
X11067829Y-13003036D01*
X11048781Y-13003036D01*
X11029733Y-12993512D01*
X11020210Y-12983988D01*
X11010686Y-12964941D01*
X11001162Y-12926846D01*
X11001162Y-12879227D01*
X11010686Y-12841131D01*
X11020210Y-12822084D01*
X11029733Y-12812560D01*
X11048781Y-12803036D01*
X11201162Y-13003036D02*
X11201162Y-12869703D01*
X11201162Y-12888750D02*
X11210686Y-12879227D01*
X11229733Y-12869703D01*
X11258305Y-12869703D01*
X11277352Y-12879227D01*
X11286876Y-12898274D01*
X11286876Y-13003036D01*
X11286876Y-12898274D02*
X11296400Y-12879227D01*
X11315448Y-12869703D01*
X11344019Y-12869703D01*
X11363067Y-12879227D01*
X11372590Y-12898274D01*
X11372590Y-13003036D01*
X11467828Y-13003036D02*
X11467828Y-12869703D01*
X11467828Y-12888750D02*
X11477352Y-12879227D01*
X11496400Y-12869703D01*
X11524971Y-12869703D01*
X11544019Y-12879227D01*
X11553543Y-12898274D01*
X11553543Y-13003036D01*
X11553543Y-12898274D02*
X11563067Y-12879227D01*
X11582114Y-12869703D01*
X11610686Y-12869703D01*
X11629733Y-12879227D01*
X11639257Y-12898274D01*
X11639257Y-13003036D01*
X12029733Y-12793512D02*
X11858305Y-13050655D01*
X12286876Y-12803036D02*
X12305924Y-12803036D01*
X12324971Y-12812560D01*
X12334495Y-12822084D01*
X12344019Y-12841131D01*
X12353543Y-12879227D01*
X12353543Y-12926846D01*
X12344019Y-12964941D01*
X12334495Y-12983988D01*
X12324971Y-12993512D01*
X12305924Y-13003036D01*
X12286876Y-13003036D01*
X12267828Y-12993512D01*
X12258305Y-12983988D01*
X12248781Y-12964941D01*
X12239257Y-12926846D01*
X12239257Y-12879227D01*
X12248781Y-12841131D01*
X12258305Y-12822084D01*
X12267828Y-12812560D01*
X12286876Y-12803036D01*
X12439257Y-12983988D02*
X12448781Y-12993512D01*
X12439257Y-13003036D01*
X12429733Y-12993512D01*
X12439257Y-12983988D01*
X12439257Y-13003036D01*
X12572590Y-12803036D02*
X12591638Y-12803036D01*
X12610686Y-12812560D01*
X12620209Y-12822084D01*
X12629733Y-12841131D01*
X12639257Y-12879227D01*
X12639257Y-12926846D01*
X12629733Y-12964941D01*
X12620209Y-12983988D01*
X12610686Y-12993512D01*
X12591638Y-13003036D01*
X12572590Y-13003036D01*
X12553543Y-12993512D01*
X12544019Y-12983988D01*
X12534495Y-12964941D01*
X12524971Y-12926846D01*
X12524971Y-12879227D01*
X12534495Y-12841131D01*
X12544019Y-12822084D01*
X12553543Y-12812560D01*
X12572590Y-12803036D01*
X12810686Y-12869703D02*
X12810686Y-13003036D01*
X12763067Y-12793512D02*
X12715448Y-12936369D01*
X12839257Y-12936369D01*
X12896400Y-12803036D02*
X13029733Y-12803036D01*
X12944019Y-13003036D01*
X13096400Y-12822084D02*
X13105924Y-12812560D01*
X13124971Y-12803036D01*
X13172590Y-12803036D01*
X13191638Y-12812560D01*
X13201162Y-12822084D01*
X13210686Y-12841131D01*
X13210686Y-12860179D01*
X13201162Y-12888750D01*
X13086876Y-13003036D01*
X13210686Y-13003036D01*
X13286876Y-12803036D02*
X13286876Y-12841131D01*
X13363067Y-12803036D02*
X13363067Y-12841131D01*
X13658305Y-13079227D02*
X13648781Y-13069703D01*
X13629733Y-13041131D01*
X13620209Y-13022084D01*
X13610686Y-12993512D01*
X13601162Y-12945893D01*
X13601162Y-12907798D01*
X13610686Y-12860179D01*
X13620209Y-12831608D01*
X13629733Y-12812560D01*
X13648781Y-12783988D01*
X13658305Y-12774465D01*
X13724971Y-12822084D02*
X13734495Y-12812560D01*
X13753543Y-12803036D01*
X13801162Y-12803036D01*
X13820209Y-12812560D01*
X13829733Y-12822084D01*
X13839257Y-12841131D01*
X13839257Y-12860179D01*
X13829733Y-12888750D01*
X13715448Y-13003036D01*
X13839257Y-13003036D01*
X14010686Y-12869703D02*
X14010686Y-13003036D01*
X13963067Y-12793512D02*
X13915448Y-12936369D01*
X14039257Y-12936369D01*
X14267828Y-13003036D02*
X14267828Y-12803036D01*
X14353543Y-13003036D02*
X14353543Y-12898274D01*
X14344019Y-12879227D01*
X14324971Y-12869703D01*
X14296400Y-12869703D01*
X14277352Y-12879227D01*
X14267828Y-12888750D01*
X14477352Y-13003036D02*
X14458305Y-12993512D01*
X14448781Y-12983988D01*
X14439257Y-12964941D01*
X14439257Y-12907798D01*
X14448781Y-12888750D01*
X14458305Y-12879227D01*
X14477352Y-12869703D01*
X14505924Y-12869703D01*
X14524971Y-12879227D01*
X14534495Y-12888750D01*
X14544019Y-12907798D01*
X14544019Y-12964941D01*
X14534495Y-12983988D01*
X14524971Y-12993512D01*
X14505924Y-13003036D01*
X14477352Y-13003036D01*
X14658305Y-13003036D02*
X14639257Y-12993512D01*
X14629733Y-12974465D01*
X14629733Y-12803036D01*
X14810686Y-12993512D02*
X14791638Y-13003036D01*
X14753543Y-13003036D01*
X14734495Y-12993512D01*
X14724971Y-12974465D01*
X14724971Y-12898274D01*
X14734495Y-12879227D01*
X14753543Y-12869703D01*
X14791638Y-12869703D01*
X14810686Y-12879227D01*
X14820209Y-12898274D01*
X14820209Y-12917322D01*
X14724971Y-12936369D01*
X14896400Y-12993512D02*
X14915448Y-13003036D01*
X14953543Y-13003036D01*
X14972590Y-12993512D01*
X14982114Y-12974465D01*
X14982114Y-12964941D01*
X14972590Y-12945893D01*
X14953543Y-12936369D01*
X14924971Y-12936369D01*
X14905924Y-12926846D01*
X14896400Y-12907798D01*
X14896400Y-12898274D01*
X14905924Y-12879227D01*
X14924971Y-12869703D01*
X14953543Y-12869703D01*
X14972590Y-12879227D01*
X15048781Y-13079227D02*
X15058305Y-13069703D01*
X15077352Y-13041131D01*
X15086876Y-13022084D01*
X15096400Y-12993512D01*
X15105924Y-12945893D01*
X15105924Y-12907798D01*
X15096400Y-12860179D01*
X15086876Y-12831608D01*
X15077352Y-12812560D01*
X15058305Y-12783988D01*
X15048781Y-12774465D01*
D16*
X9906400Y-13086560D02*
X10086400Y-13266560D01*
X10086400Y-13086560D02*
X9906400Y-13266560D01*
X10086400Y-13176560D02*
G75*
G03*
X10086400Y-13176560I-90000J0D01*
G01*
D11*
X10448781Y-13267036D02*
X10334495Y-13267036D01*
X10391638Y-13267036D02*
X10391638Y-13067036D01*
X10372590Y-13095608D01*
X10353543Y-13114655D01*
X10334495Y-13124179D01*
X10534495Y-13247988D02*
X10544019Y-13257512D01*
X10534495Y-13267036D01*
X10524971Y-13257512D01*
X10534495Y-13247988D01*
X10534495Y-13267036D01*
X10658305Y-13152750D02*
X10639257Y-13143227D01*
X10629733Y-13133703D01*
X10620210Y-13114655D01*
X10620210Y-13105131D01*
X10629733Y-13086084D01*
X10639257Y-13076560D01*
X10658305Y-13067036D01*
X10696400Y-13067036D01*
X10715448Y-13076560D01*
X10724971Y-13086084D01*
X10734495Y-13105131D01*
X10734495Y-13114655D01*
X10724971Y-13133703D01*
X10715448Y-13143227D01*
X10696400Y-13152750D01*
X10658305Y-13152750D01*
X10639257Y-13162274D01*
X10629733Y-13171798D01*
X10620210Y-13190846D01*
X10620210Y-13228941D01*
X10629733Y-13247988D01*
X10639257Y-13257512D01*
X10658305Y-13267036D01*
X10696400Y-13267036D01*
X10715448Y-13257512D01*
X10724971Y-13247988D01*
X10734495Y-13228941D01*
X10734495Y-13190846D01*
X10724971Y-13171798D01*
X10715448Y-13162274D01*
X10696400Y-13152750D01*
X10858305Y-13067036D02*
X10877352Y-13067036D01*
X10896400Y-13076560D01*
X10905924Y-13086084D01*
X10915448Y-13105131D01*
X10924971Y-13143227D01*
X10924971Y-13190846D01*
X10915448Y-13228941D01*
X10905924Y-13247988D01*
X10896400Y-13257512D01*
X10877352Y-13267036D01*
X10858305Y-13267036D01*
X10839257Y-13257512D01*
X10829733Y-13247988D01*
X10820210Y-13228941D01*
X10810686Y-13190846D01*
X10810686Y-13143227D01*
X10820210Y-13105131D01*
X10829733Y-13086084D01*
X10839257Y-13076560D01*
X10858305Y-13067036D01*
X11048781Y-13067036D02*
X11067829Y-13067036D01*
X11086876Y-13076560D01*
X11096400Y-13086084D01*
X11105924Y-13105131D01*
X11115448Y-13143227D01*
X11115448Y-13190846D01*
X11105924Y-13228941D01*
X11096400Y-13247988D01*
X11086876Y-13257512D01*
X11067829Y-13267036D01*
X11048781Y-13267036D01*
X11029733Y-13257512D01*
X11020210Y-13247988D01*
X11010686Y-13228941D01*
X11001162Y-13190846D01*
X11001162Y-13143227D01*
X11010686Y-13105131D01*
X11020210Y-13086084D01*
X11029733Y-13076560D01*
X11048781Y-13067036D01*
X11201162Y-13267036D02*
X11201162Y-13133703D01*
X11201162Y-13152750D02*
X11210686Y-13143227D01*
X11229733Y-13133703D01*
X11258305Y-13133703D01*
X11277352Y-13143227D01*
X11286876Y-13162274D01*
X11286876Y-13267036D01*
X11286876Y-13162274D02*
X11296400Y-13143227D01*
X11315448Y-13133703D01*
X11344019Y-13133703D01*
X11363067Y-13143227D01*
X11372590Y-13162274D01*
X11372590Y-13267036D01*
X11467828Y-13267036D02*
X11467828Y-13133703D01*
X11467828Y-13152750D02*
X11477352Y-13143227D01*
X11496400Y-13133703D01*
X11524971Y-13133703D01*
X11544019Y-13143227D01*
X11553543Y-13162274D01*
X11553543Y-13267036D01*
X11553543Y-13162274D02*
X11563067Y-13143227D01*
X11582114Y-13133703D01*
X11610686Y-13133703D01*
X11629733Y-13143227D01*
X11639257Y-13162274D01*
X11639257Y-13267036D01*
X12029733Y-13057512D02*
X11858305Y-13314655D01*
X12286876Y-13067036D02*
X12305924Y-13067036D01*
X12324971Y-13076560D01*
X12334495Y-13086084D01*
X12344019Y-13105131D01*
X12353543Y-13143227D01*
X12353543Y-13190846D01*
X12344019Y-13228941D01*
X12334495Y-13247988D01*
X12324971Y-13257512D01*
X12305924Y-13267036D01*
X12286876Y-13267036D01*
X12267828Y-13257512D01*
X12258305Y-13247988D01*
X12248781Y-13228941D01*
X12239257Y-13190846D01*
X12239257Y-13143227D01*
X12248781Y-13105131D01*
X12258305Y-13086084D01*
X12267828Y-13076560D01*
X12286876Y-13067036D01*
X12439257Y-13247988D02*
X12448781Y-13257512D01*
X12439257Y-13267036D01*
X12429733Y-13257512D01*
X12439257Y-13247988D01*
X12439257Y-13267036D01*
X12572590Y-13067036D02*
X12591638Y-13067036D01*
X12610686Y-13076560D01*
X12620209Y-13086084D01*
X12629733Y-13105131D01*
X12639257Y-13143227D01*
X12639257Y-13190846D01*
X12629733Y-13228941D01*
X12620209Y-13247988D01*
X12610686Y-13257512D01*
X12591638Y-13267036D01*
X12572590Y-13267036D01*
X12553543Y-13257512D01*
X12544019Y-13247988D01*
X12534495Y-13228941D01*
X12524971Y-13190846D01*
X12524971Y-13143227D01*
X12534495Y-13105131D01*
X12544019Y-13086084D01*
X12553543Y-13076560D01*
X12572590Y-13067036D01*
X12705924Y-13067036D02*
X12839257Y-13067036D01*
X12753543Y-13267036D01*
X12953543Y-13067036D02*
X12972590Y-13067036D01*
X12991638Y-13076560D01*
X13001162Y-13086084D01*
X13010686Y-13105131D01*
X13020209Y-13143227D01*
X13020209Y-13190846D01*
X13010686Y-13228941D01*
X13001162Y-13247988D01*
X12991638Y-13257512D01*
X12972590Y-13267036D01*
X12953543Y-13267036D01*
X12934495Y-13257512D01*
X12924971Y-13247988D01*
X12915448Y-13228941D01*
X12905924Y-13190846D01*
X12905924Y-13143227D01*
X12915448Y-13105131D01*
X12924971Y-13086084D01*
X12934495Y-13076560D01*
X12953543Y-13067036D01*
X13115448Y-13267036D02*
X13153543Y-13267036D01*
X13172590Y-13257512D01*
X13182114Y-13247988D01*
X13201162Y-13219417D01*
X13210686Y-13181322D01*
X13210686Y-13105131D01*
X13201162Y-13086084D01*
X13191638Y-13076560D01*
X13172590Y-13067036D01*
X13134495Y-13067036D01*
X13115448Y-13076560D01*
X13105924Y-13086084D01*
X13096400Y-13105131D01*
X13096400Y-13152750D01*
X13105924Y-13171798D01*
X13115448Y-13181322D01*
X13134495Y-13190846D01*
X13172590Y-13190846D01*
X13191638Y-13181322D01*
X13201162Y-13171798D01*
X13210686Y-13152750D01*
X13286876Y-13067036D02*
X13286876Y-13105131D01*
X13363067Y-13067036D02*
X13363067Y-13105131D01*
X13658305Y-13343227D02*
X13648781Y-13333703D01*
X13629733Y-13305131D01*
X13620209Y-13286084D01*
X13610686Y-13257512D01*
X13601162Y-13209893D01*
X13601162Y-13171798D01*
X13610686Y-13124179D01*
X13620209Y-13095608D01*
X13629733Y-13076560D01*
X13648781Y-13047988D01*
X13658305Y-13038465D01*
X13724971Y-13086084D02*
X13734495Y-13076560D01*
X13753543Y-13067036D01*
X13801162Y-13067036D01*
X13820209Y-13076560D01*
X13829733Y-13086084D01*
X13839257Y-13105131D01*
X13839257Y-13124179D01*
X13829733Y-13152750D01*
X13715448Y-13267036D01*
X13839257Y-13267036D01*
X13934495Y-13267036D02*
X13972590Y-13267036D01*
X13991638Y-13257512D01*
X14001162Y-13247988D01*
X14020209Y-13219417D01*
X14029733Y-13181322D01*
X14029733Y-13105131D01*
X14020209Y-13086084D01*
X14010686Y-13076560D01*
X13991638Y-13067036D01*
X13953543Y-13067036D01*
X13934495Y-13076560D01*
X13924971Y-13086084D01*
X13915448Y-13105131D01*
X13915448Y-13152750D01*
X13924971Y-13171798D01*
X13934495Y-13181322D01*
X13953543Y-13190846D01*
X13991638Y-13190846D01*
X14010686Y-13181322D01*
X14020209Y-13171798D01*
X14029733Y-13152750D01*
X14267828Y-13267036D02*
X14267828Y-13067036D01*
X14353543Y-13267036D02*
X14353543Y-13162274D01*
X14344019Y-13143227D01*
X14324971Y-13133703D01*
X14296400Y-13133703D01*
X14277352Y-13143227D01*
X14267828Y-13152750D01*
X14477352Y-13267036D02*
X14458305Y-13257512D01*
X14448781Y-13247988D01*
X14439257Y-13228941D01*
X14439257Y-13171798D01*
X14448781Y-13152750D01*
X14458305Y-13143227D01*
X14477352Y-13133703D01*
X14505924Y-13133703D01*
X14524971Y-13143227D01*
X14534495Y-13152750D01*
X14544019Y-13171798D01*
X14544019Y-13228941D01*
X14534495Y-13247988D01*
X14524971Y-13257512D01*
X14505924Y-13267036D01*
X14477352Y-13267036D01*
X14658305Y-13267036D02*
X14639257Y-13257512D01*
X14629733Y-13238465D01*
X14629733Y-13067036D01*
X14810686Y-13257512D02*
X14791638Y-13267036D01*
X14753543Y-13267036D01*
X14734495Y-13257512D01*
X14724971Y-13238465D01*
X14724971Y-13162274D01*
X14734495Y-13143227D01*
X14753543Y-13133703D01*
X14791638Y-13133703D01*
X14810686Y-13143227D01*
X14820209Y-13162274D01*
X14820209Y-13181322D01*
X14724971Y-13200369D01*
X14896400Y-13257512D02*
X14915448Y-13267036D01*
X14953543Y-13267036D01*
X14972590Y-13257512D01*
X14982114Y-13238465D01*
X14982114Y-13228941D01*
X14972590Y-13209893D01*
X14953543Y-13200369D01*
X14924971Y-13200369D01*
X14905924Y-13190846D01*
X14896400Y-13171798D01*
X14896400Y-13162274D01*
X14905924Y-13143227D01*
X14924971Y-13133703D01*
X14953543Y-13133703D01*
X14972590Y-13143227D01*
X15048781Y-13343227D02*
X15058305Y-13333703D01*
X15077352Y-13305131D01*
X15086876Y-13286084D01*
X15096400Y-13257512D01*
X15105924Y-13209893D01*
X15105924Y-13171798D01*
X15096400Y-13124179D01*
X15086876Y-13095608D01*
X15077352Y-13076560D01*
X15058305Y-13047988D01*
X15048781Y-13038465D01*
M02*
